<?xml version="1.0" encoding="utf-8"?>
<!-- Generator: Adobe Illustrator 25.3.1, SVG Export Plug-In . SVG Version: 6.00 Build 0)  -->
<svg version="1.1" id="Layer_1" xmlns="http://www.w3.org/2000/svg" xmlns:xlink="http://www.w3.org/1999/xlink" x="0px" y="0px"
	 viewBox="0 0 600 115" style="enable-background:new 0 0 600 115;" xml:space="preserve">
<style type="text/css">
	.st0{fill:#FFFFFF;}
	.st1{font-family:'Michroma';}
	.st2{font-size:56.9285px;}
	.st3{font-family:'ArialMT';}
	.st4{font-size:24.6868px;}
	.st5{fill:#FFFFFF;stroke:#000000;stroke-width:2;stroke-miterlimit:10;}
</style>
<text transform="matrix(1 0 0 1 116.4046 60.0431)" class="st0 st1 st2">NEURABITS</text>
<text transform="matrix(1 0 0 1 116.4048 96.0449)" class="st0 st3 st4">Investigación y desarrollo de tecnología.</text>
<g>
	<g>
		<path class="st0" d="M60.9,60.1l-0.1-16.8l14.1,0c1.9,0,3.2,0.4,4.1,1.2c0.9,0.8,1.3,1.9,1.3,3.5c0,1.5-0.5,2.7-1.5,3.4
			c0.7,0.4,1.2,0.9,1.5,1.5c0.3,0.6,0.5,1.4,0.5,2.4c0,1.6-0.4,2.8-1.3,3.6c-0.9,0.8-2.3,1.2-4.1,1.2L60.9,60.1z M74.5,46.2h-9.9V50
			h9.9c1.4,0,2.1-0.6,2.1-1.9C76.7,46.9,76,46.2,74.5,46.2z M75,53H64.6v4H75c1.4,0,2.1-0.7,2.1-2C77.1,53.7,76.4,53,75,53z"/>
	</g>
	<g>
		<path class="st0" d="M39.1,60.1V43.3h3.8l11.9,12.1l0.3-13.1l3,0l0.4,17.8h-3.8L42.9,48v12.1H39.1z"/>
	</g>
	<g>
		<path class="st0" d="M71.1,34.1c-0.4-0.1-0.9-0.3-1.3-0.4c-0.3-0.1,0.2,0.1,0,0c-0.1-0.1-0.2-0.1-0.3-0.2
			c-0.2-0.1-0.4-0.2-0.6-0.3c-0.4-0.2-0.8-0.4-1.1-0.7c0,0-0.4-0.3-0.2-0.1c0.2,0.1-0.1-0.1-0.1-0.1c-0.2-0.1-0.3-0.3-0.5-0.4
			c-0.3-0.3-0.7-0.6-0.9-1c-0.1-0.1-0.1-0.2-0.2-0.2c0,0-0.2-0.3-0.1-0.1c0.1,0.2-0.1-0.1-0.1-0.1c-0.1-0.1-0.2-0.2-0.2-0.3
			c-0.2-0.4-0.5-0.7-0.7-1.1c-0.1-0.2-0.2-0.4-0.3-0.5c0,0,0-0.1-0.1-0.1c0-0.1,0-0.2,0,0.1c0-0.1-0.1-0.2-0.1-0.3
			c-0.2-0.4-0.3-0.8-0.4-1.3c0-0.2-0.1-0.4-0.1-0.6c0-0.1,0-0.2-0.1-0.4c0-0.3,0,0.3,0-0.1c-0.1-0.9-0.1-1.8,0-2.7
			c0-0.2,0,0.1,0,0.1c0,0,0-0.2,0-0.2c0-0.1,0-0.2,0.1-0.3c0-0.2,0.1-0.4,0.1-0.6c0.1-0.4,0.2-0.8,0.4-1.2c0-0.1,0.1-0.2,0.1-0.3
			c0.1-0.3-0.1,0.2,0,0c0.1-0.2,0.2-0.4,0.3-0.6c0.2-0.4,0.4-0.7,0.6-1.1c0.1-0.2,0.2-0.3,0.3-0.5c0,0,0.1-0.1,0.1-0.1
			c0.1-0.1-0.1,0.1-0.1,0.1c0-0.1,0.2-0.2,0.2-0.3c0.3-0.3,0.6-0.6,0.9-0.9c0.1-0.1,0.3-0.3,0.4-0.4c0.1-0.1,0.2-0.1,0.3-0.2
			c0,0,0.1-0.1,0.1-0.1c0.2-0.1-0.1,0-0.1,0.1c0-0.1,0.4-0.3,0.5-0.3c0.2-0.1,0.4-0.3,0.6-0.4c0.4-0.2,0.7-0.4,1.1-0.6
			c0.1,0,0.2-0.1,0.3-0.1c0,0-0.3,0.1-0.1,0c0,0,0.1,0,0.1-0.1c0.2-0.1,0.4-0.1,0.6-0.2c0.4-0.1,0.8-0.2,1.3-0.3
			c0.2,0,0.4-0.1,0.6-0.1c0.2,0-0.1,0-0.1,0c0,0,0.1,0,0.2,0c0.1,0,0.2,0,0.4,0c0.4,0,0.9,0,1.3,0c0.2,0,0.4,0,0.7,0
			c0.1,0,0.2,0,0.3,0c0.2,0-0.1,0-0.1,0c0.1,0,0.2,0,0.3,0c0.9,0.1,1.7,0.4,2.5,0.7c0.2,0.1-0.1-0.1-0.1-0.1c0,0,0.1,0,0.1,0.1
			c0.1,0,0.2,0.1,0.3,0.1c0.2,0.1,0.4,0.2,0.6,0.3c0.4,0.2,0.7,0.4,1.1,0.7c0.1,0.1,0.2,0.1,0.2,0.2c0.3,0.2-0.2-0.1,0,0
			c0.2,0.1,0.3,0.3,0.5,0.4c0.3,0.3,0.6,0.6,0.9,0.9c0.1,0.2,0.3,0.3,0.4,0.5c0,0,0.1,0.1,0.1,0.1c0.1,0.1-0.1-0.1-0.1-0.1
			c0.1,0,0.2,0.2,0.2,0.3c0.2,0.3,0.5,0.7,0.7,1.1c0.1,0.2,0.2,0.4,0.3,0.6c0,0.1,0.1,0.2,0.1,0.3c0,0.1,0.2,0.4,0.1,0.2
			c-0.1-0.2,0.1,0.1,0.1,0.2c0,0.1,0.1,0.2,0.1,0.3c0.1,0.2,0.1,0.4,0.2,0.7c0.1,0.4,0.2,0.8,0.3,1.3c0,0.1,0,0.2,0,0.3
			c0,0,0-0.3,0-0.1c0,0.1,0,0.1,0,0.2c0,0.2,0,0.5,0.1,0.7c0,0.5,0,1.1,0,1.6c0,0.1,0,0.3,0,0.4c0-0.3,0,0,0,0.1
			c-0.1,0.3-0.1,0.6-0.2,0.9c-0.1,0.5-0.3,1.1-0.5,1.6c-0.3,0.7,0.3,1.7,1,1.8c0.9,0.2,1.5-0.3,1.8-1c1.7-4.1,1.1-9-1.5-12.5
			c-2.4-3.3-6.2-5.4-10.3-5.5c-4-0.1-8,1.6-10.5,4.7c-2.7,3.2-3.7,7.5-2.7,11.6c1,4.1,4,7.4,7.9,9c0.4,0.2,0.9,0.3,1.4,0.5
			c0.7,0.2,1.6-0.3,1.8-1C72.3,35.1,71.9,34.3,71.1,34.1L71.1,34.1z"/>
	</g>
	<g>
		<path class="st0" d="M86.4,58.6c0-0.4,0-0.9,0-1.4c0-0.2,0-0.4,0-0.6c0-0.1,0-0.2,0-0.2c0-0.2,0-0.2,0,0c0-0.1,0-0.2,0-0.2
			c0.1-0.8,0.3-1.6,0.6-2.3c0-0.1,0.1-0.1,0.1-0.2c-0.2,0.3,0,0,0-0.1c0.1-0.2,0.2-0.4,0.3-0.5c0.2-0.3,0.4-0.7,0.6-1
			c0.1-0.2,0.2-0.3,0.3-0.5c0.2-0.3-0.2,0.2,0-0.1c0-0.1,0.1-0.1,0.1-0.2c0.3-0.3,0.5-0.6,0.8-0.9c0.2-0.2,0.5-0.5,0.8-0.7
			c0.1-0.1,0.3-0.3,0.1,0c0,0,0.1-0.1,0.2-0.1c0.2-0.1,0.4-0.3,0.6-0.4c0.3-0.2,0.6-0.4,1-0.6c0.2-0.1,0.3-0.2,0.5-0.2
			c0.1,0,0.3-0.2,0,0c0.1,0,0.2-0.1,0.3-0.1c0.7-0.3,1.5-0.5,2.3-0.6c0.1,0,0.4-0.1,0,0c0.1,0,0.2,0,0.3,0c0.2,0,0.4,0,0.5,0
			c0.5,0,1,0,1.5,0c0.1,0,0.2,0,0.3,0c0,0,0.5,0.1,0.2,0c0.2,0,0.5,0.1,0.7,0.1c0.4,0.1,0.8,0.2,1.1,0.3c0.3,0.1,0.7,0.2,1,0.4
			c-0.4-0.2,0.1,0.1,0.2,0.1c0.2,0.1,0.3,0.2,0.5,0.3c0.3,0.2,0.6,0.3,0.8,0.5c0.1,0.1,0.3,0.2,0.4,0.3c0.1,0.1,0.2,0.1,0.2,0.2
			c0,0-0.1-0.1-0.1-0.1c0.1,0,0.1,0.1,0.2,0.1c0.5,0.4,1,0.9,1.4,1.4c0.1,0.1,0.2,0.3,0.3,0.4c0.2,0.3-0.1-0.2,0,0
			c0,0.1,0.1,0.1,0.1,0.2c0.2,0.3,0.4,0.6,0.6,0.9c0.2,0.3,0.3,0.6,0.5,0.9c0.1,0.2,0.1,0.3,0.2,0.5c-0.2-0.3-0.1-0.1,0,0
			c0,0.1,0.1,0.2,0.1,0.3c0.2,0.7,0.4,1.3,0.5,2c0,0,0.1,0.4,0,0.1c0-0.3,0,0.1,0,0.1c0,0.2,0,0.4,0,0.5c0,0.4,0,0.8,0,1.2
			c0,0.2,0,0.4,0,0.6c0,0.1,0,0.2,0,0.3c0,0.4,0-0.2,0,0.1c-0.1,0.4-0.2,0.8-0.3,1.2c-0.1,0.4-0.3,0.9-0.4,1.3c0,0.1-0.1,0.3,0,0
			c0,0.1-0.1,0.2-0.1,0.3c-0.1,0.2-0.2,0.4-0.3,0.6c-0.2,0.4-0.4,0.7-0.6,1c-0.1,0.1-0.1,0.2-0.2,0.3c0,0-0.3,0.4,0,0
			c-0.1,0.2-0.3,0.3-0.4,0.5c-0.3,0.3-0.5,0.6-0.8,0.9c-0.2,0.1-0.3,0.3-0.5,0.4c-0.1,0-0.1,0.1-0.2,0.1c-0.1,0.1-0.1,0.1,0,0
			c-0.1,0-0.1,0.1-0.2,0.1c-0.6,0.5-1,1.3-0.5,2c0.4,0.6,1.4,1,2,0.5c2.9-2.1,4.9-5.2,5.4-8.7c0.5-3.3-0.2-6.8-2.2-9.6
			c-1.9-2.7-4.8-4.7-8.1-5.3c-3.9-0.8-7.8,0.2-10.9,2.7c-3.3,2.6-5.1,6.9-4.8,11c0.1,0.8,0.6,1.5,1.5,1.5
			C85.7,60,86.5,59.4,86.4,58.6L86.4,58.6z"/>
	</g>
	<g>
		<path class="st0" d="M88,66.5c0.2,0.2,0.3,0.5,0.4,0.7c0.1,0.1,0.1,0.2,0.2,0.4c0.1,0.3-0.1-0.3,0-0.1c0,0.1,0.1,0.2,0.1,0.3
			c0.1,0.2,0.2,0.5,0.2,0.8c0,0.1,0,0.3,0.1,0.4c0,0.2,0-0.4,0-0.1c0,0.1,0,0.2,0,0.2c0,0.3,0,0.5,0,0.8c0,0.1,0,0.3,0,0.4
			c0-0.5,0,0,0,0.2c-0.1,0.2-0.1,0.5-0.2,0.7c0,0.1-0.2,0.3,0-0.1c0,0,0,0.1-0.1,0.1c-0.1,0.1-0.1,0.3-0.2,0.4
			c-0.1,0.1-0.1,0.2-0.2,0.3c-0.1,0.2,0.1-0.1,0.1-0.1c-0.1,0.1-0.1,0.1-0.1,0.2c-0.1,0.1-0.2,0.2-0.3,0.3c0,0-0.1,0.1-0.1,0.1
			c-0.3,0.2,0.1-0.1,0,0c-0.2,0.1-0.4,0.3-0.7,0.4c-0.1,0.1-0.3,0.1,0,0c-0.1,0-0.1,0-0.2,0.1c-0.2,0.1-0.3,0.1-0.5,0.2
			c-0.2,0-0.3,0.1-0.5,0.1c-0.3,0.1,0.1,0,0.1,0c0,0-0.8,0.1-0.6,0.1c-0.3,0-0.6,0.1-0.9,0.3c-0.8,0.3-1.5,0.8-2,1.4
			c-1.2,1.4-1.6,3.5-0.6,5.1c-0.1-0.2-0.1-0.5-0.2-0.7c0,0.6,0.4,1.1,0.8,1.6c0.3,0.4,0.7,0.9,1.1,1.3c0.6,0.7,1.4,1.3,2.1,1.8
			c1.4,1,3.1,1.7,4.8,2c3.2,0.6,6.6,0,9.4-1.7c2.6-1.6,4.6-4.1,5.6-6.9c1.2-3.3,0.9-7.1-0.7-10.3c-1.7-3.4-5-5.9-8.7-6.8
			c-0.8-0.2-1.6,0.2-1.8,1c-0.2,0.8,0.2,1.6,1,1.8c0.4,0.1,0.7,0.2,1.1,0.3c0.1,0,0.3,0.1,0.4,0.1c0.1,0,0.2,0.1,0.3,0.1
			c-0.2-0.1-0.1,0,0.1,0c0.6,0.3,1.2,0.6,1.8,1c0.1,0.1,0.2,0.1,0.3,0.2c0.1,0,0.2,0.2,0,0c0.1,0.1,0.3,0.2,0.4,0.3
			c0.3,0.2,0.5,0.5,0.8,0.8c0.2,0.2,0.4,0.5,0.7,0.7c0.2,0.3-0.2-0.3,0,0c0,0.1,0.1,0.1,0.1,0.2c0.1,0.2,0.2,0.3,0.3,0.5
			c0.2,0.3,0.4,0.6,0.5,0.9c0.1,0.2,0.2,0.3,0.2,0.5c0,0.1,0.1,0.2,0.1,0.3c-0.1-0.3,0,0.1,0,0.1c0.3,0.8,0.5,1.6,0.6,2.4
			c0,0.2,0-0.4,0,0.1c0,0.1,0,0.2,0,0.3c0,0.2,0,0.4,0,0.7c0,0.4,0,0.7,0,1.1c0,0.2,0,0.3,0,0.5c0,0.1,0,0.1,0,0.2c0-0.4,0-0.2,0,0
			c-0.1,0.3-0.1,0.7-0.2,1c-0.1,0.3-0.2,0.6-0.2,0.9c-0.1,0.2-0.1,0.3-0.2,0.5c0,0.1,0,0.1-0.1,0.2c-0.1,0.3,0.1-0.3,0,0
			c-0.3,0.6-0.6,1.2-0.9,1.7c-0.1,0.1-0.2,0.2-0.2,0.4c0,0.1-0.1,0.1-0.1,0.2c-0.1,0.1,0,0.1,0.1-0.1c0,0.1-0.2,0.3-0.3,0.4
			c-0.1,0.1-0.2,0.2-0.3,0.4c-0.2,0.2-0.4,0.5-0.7,0.7c-0.1,0.1-0.2,0.2-0.3,0.3c-0.1,0.1-0.1,0.1-0.2,0.2c0,0-0.1,0-0.1,0.1
			c-0.1,0.1-0.1,0.1,0.1-0.1c0,0.1-0.3,0.2-0.4,0.3c-0.1,0.1-0.2,0.2-0.4,0.2c-0.3,0.2-0.6,0.3-0.8,0.5c-0.1,0.1-0.3,0.2-0.4,0.2
			c-0.1,0.1-0.3,0.2-0.4,0.2c0,0,0.3-0.1,0.1,0c-0.1,0-0.2,0.1-0.2,0.1c-0.2,0.1-0.3,0.1-0.5,0.2c-0.6,0.2-1.3,0.3-1.9,0.4
			c-0.2,0,0.4,0,0,0c-0.1,0-0.1,0-0.2,0c-0.2,0-0.3,0-0.5,0c-0.4,0-0.8,0-1.1,0c-0.2,0-0.5,0-0.7,0c-0.1,0-0.2,0-0.3,0
			c0.3,0,0,0-0.1,0c-0.4-0.1-0.9-0.2-1.3-0.3c-0.2-0.1-0.4-0.1-0.6-0.2c-0.1,0-0.2-0.1-0.3-0.1c-0.1,0-0.4-0.2-0.1,0
			c-0.4-0.2-0.8-0.4-1.2-0.6c-0.4-0.2-0.7-0.4-1.1-0.7c-0.1,0-0.1-0.1-0.2-0.1c0.3,0.2,0,0-0.1-0.1c-0.2-0.1-0.3-0.3-0.5-0.4
			c-0.3-0.3-0.7-0.6-0.9-1c-0.1-0.1-0.1-0.2-0.2-0.2c-0.3-0.3,0.2,0.2-0.1-0.1c-0.2-0.2-0.3-0.4-0.4-0.6c0.1,0.2,0.1,0.5,0.2,0.7
			c0-0.3-0.1-0.6-0.3-0.9c0,0,0-0.1,0-0.1c-0.1-0.1-0.1-0.1,0,0.1c0,0,0-0.1-0.1-0.2c0-0.1,0-0.2-0.1-0.2c-0.1-0.2,0,0.1,0,0.1
			c0-0.1,0-0.4,0-0.5c0,0.3-0.1,0.3,0,0.1c0-0.1,0-0.1,0.1-0.2c0-0.1,0.1-0.1,0.1-0.2c0-0.2-0.2,0.3,0,0.1c0.1-0.1,0.1-0.3,0.2-0.4
			c0-0.1,0.2-0.2,0-0.1c-0.2,0.2,0.1-0.1,0.1-0.1c0.1-0.1,0.2-0.2,0.3-0.3c0.2-0.1,0,0.1-0.1,0.1c0,0,0.2-0.1,0.2-0.2
			c0.1,0,0.1-0.1,0.2-0.1c0,0,0.1,0,0.1,0c0.1-0.1,0.1-0.1-0.1,0c0.1,0,0.4-0.1,0.5-0.2c0,0,0.2,0,0.2,0c0,0.1-0.3,0-0.1,0
			c0.3,0,0.5-0.1,0.8-0.1c0.3-0.1,0.6-0.1,0.9-0.3c1.3-0.5,2.5-1.4,3.2-2.7c0.6-1.1,0.9-2.4,0.9-3.7c-0.1-1.5-0.5-3-1.4-4.2
			c-0.4-0.6-1.3-1-2-0.5C87.9,64.9,87.5,65.8,88,66.5L88,66.5z"/>
	</g>
	<g>
		<path class="st0" d="M60.9,45.2c0,4.9,0,9.8,0,14.7c0,3.8,0,7.6,0,11.5c0,2.8,0,5.6,0,8.4c0,1.9,0,3.8,0,5.8c0,1.1,0,2.2,0,3.3
			c0,0.4,0,0.8,0,1.2c0,0.5,0.2,1,0.3,1.5c0.3,0.9,0.7,1.8,1.3,2.7c1.2,1.7,2.7,3.1,4.4,4.2c3.4,2.2,7.7,3.3,11.8,2.4
			c3.8-0.8,7.2-3.5,8.9-6.9c0.9-1.9,1.4-3.9,1.4-6c0-1.3-0.2-2.5-0.6-3.7c-0.2-0.6-0.4-1.3-0.7-1.9c-0.1-0.2-0.2-0.5-0.4-0.7
			c-0.1-0.1-0.1-0.2-0.2-0.4c-0.1-0.2-0.3-0.4-0.4-0.6c0,0,0.2,0.3,0.1,0.1c0-0.1-0.1-0.1-0.1-0.2c-0.1-0.1-0.2-0.2-0.3-0.4
			c-0.2-0.3-0.4-0.6-0.7-0.9c-0.4-0.5-0.8-0.9-1.3-1.3c0.1,0.3,0.3,0.7,0.4,1c0,0,0,0,0,0c0-0.8-0.7-1.5-1.5-1.5
			c-0.8,0-1.5,0.7-1.5,1.5c0,0.9,0.8,1.3,1.3,1.9c0.2,0.2,0.4,0.4,0.6,0.6c0,0,0.1,0.2,0,0.1c-0.1-0.1,0.1,0.1,0.1,0.1
			c0.1,0.1,0.2,0.2,0.3,0.4c0,0.1,0.1,0.1,0.1,0.2c0,0,0.4,0.4,0.2,0.2c-0.2-0.2,0,0.1,0.1,0.2c0.1,0.2,0.3,0.5,0.4,0.8
			c0.1,0.1,0.1,0.3,0.2,0.4c0.1,0.3-0.1-0.2,0,0.1c0.1,0.3,0.2,0.5,0.3,0.8c0.2,0.6,0.3,1.1,0.4,1.7c0,0.3,0-0.2,0,0.1
			c0,0.1,0,0.3,0,0.4c0,0.3,0,0.6,0,1c0,0.2,0,0.4,0,0.7c0,0.1,0,0.6-0.1,0.7c0,0,0-0.3,0-0.1c0,0.1,0,0.1,0,0.2
			c0,0.1,0,0.2-0.1,0.3c0,0.2-0.1,0.5-0.2,0.7c-0.1,0.4-0.2,0.9-0.4,1.3c0,0.1-0.1,0.2-0.1,0.3c0,0,0.1-0.3,0-0.1c0,0,0,0.1-0.1,0.1
			c-0.1,0.2-0.2,0.4-0.3,0.6c-0.2,0.4-0.4,0.8-0.7,1.1c-0.1,0.1-0.1,0.2-0.2,0.2c0,0-0.3,0.3-0.1,0.2c0.1-0.2-0.1,0.1-0.1,0.2
			c-0.1,0.1-0.1,0.2-0.2,0.3c-0.3,0.3-0.6,0.6-0.9,0.9c-0.2,0.1-0.3,0.3-0.5,0.4c0,0-0.1,0.1-0.1,0.1c-0.2,0.2,0.1,0,0.1-0.1
			c0,0.1-0.2,0.2-0.3,0.2c-0.4,0.3-0.7,0.5-1.1,0.7c-0.2,0.1-0.4,0.2-0.6,0.3c-0.1,0.1-0.2,0.1-0.3,0.1c0,0-0.1,0-0.1,0.1
			c-0.2,0.1,0.3-0.1,0,0c-0.8,0.3-1.7,0.6-2.6,0.7c-0.3,0,0.3,0,0,0c-0.1,0-0.2,0-0.4,0c-0.2,0-0.5,0-0.7,0c-0.4,0-0.9,0-1.3,0
			c-0.1,0-0.2,0-0.3,0c-0.1,0-0.1,0-0.2,0c0,0,0.3,0,0.1,0c-0.2,0-0.5-0.1-0.7-0.1c-0.5-0.1-0.9-0.2-1.4-0.3
			c-0.5-0.1-0.9-0.3-1.3-0.5c-0.1,0-0.2-0.1-0.3-0.1c0,0,0.3,0.1,0.1,0c0,0-0.1,0-0.1-0.1c-0.2-0.1-0.4-0.2-0.7-0.3
			c-0.8-0.4-1.7-0.9-2.4-1.5c-0.1,0-0.1-0.1-0.2-0.1c0,0,0.2,0.2,0.1,0.1c-0.1-0.1-0.2-0.1-0.2-0.2c-0.2-0.2-0.4-0.3-0.5-0.5
			c-0.3-0.3-0.7-0.6-1-1c-0.1-0.1-0.4-0.4-0.4-0.5c0,0,0.2,0.2,0.1,0.1c0,0-0.1-0.1-0.1-0.1c-0.1-0.1-0.2-0.2-0.2-0.3
			c-0.2-0.4-0.5-0.7-0.7-1.1c0-0.1-0.1-0.2-0.1-0.3c0,0,0-0.1-0.1-0.1c-0.1-0.2,0,0.1,0,0.1c0,0-0.2-0.6-0.2-0.6
			c-0.1-0.2-0.1-0.4-0.2-0.6c0-0.1,0-0.2-0.1-0.3c-0.1-0.2,0.1,0.2,0,0.3c0,0,0-0.9,0-1c0-1,0-2,0-3c0-1.7,0-3.5,0-5.2
			c0-2.6,0-5.2,0-7.8c0-3.5,0-7,0-10.5c0-4.5,0-9.1,0-13.6c0-1.3,0-2.6,0-3.8c0-0.8-0.7-1.5-1.5-1.5C61.6,43.8,60.9,44.4,60.9,45.2
			L60.9,45.2z"/>
	</g>
	<g>
		<path class="st0" d="M81.5,34.1C81.5,34.1,81.5,34.1,81.5,34.1c-0.1,0.2-0.1,0.5-0.2,0.7c0.3-0.6,0.6-1.2,1-1.8
			c0.1-0.1,0.2-0.3,0.3-0.4c0.1-0.1,0.3-0.4,0.1-0.2c0.2-0.3,0.4-0.5,0.7-0.8c0.2-0.2,0.4-0.4,0.7-0.7c0.1-0.1,0.3-0.2,0.4-0.3
			c0,0,0.2-0.2,0.1-0.1c-0.2,0.1,0.1-0.1,0.2-0.1c0.6-0.4,1.2-0.8,1.8-1.1c0.1,0,0.5-0.2,0.2-0.1c0.2-0.1,0.3-0.1,0.5-0.2
			c0.4-0.1,0.7-0.2,1.1-0.3c0.3-0.1,0.7-0.2,1.1-0.2c0,0,0.3,0,0.1,0c-0.2,0,0.2,0,0.2,0c0.2,0,0.4,0,0.6,0c0.6,0,1.3,0,1.9,0.1
			c0.3,0-0.1,0-0.1,0c0.1,0,0.1,0,0.2,0c0.1,0,0.3,0,0.4,0.1c0.3,0.1,0.6,0.1,0.9,0.2c0.3,0.1,0.5,0.2,0.8,0.3
			c0.1,0,0.2,0.1,0.4,0.1c0.2,0.1,0.1,0-0.1,0c0.1,0,0.2,0.1,0.3,0.1c0.5,0.2,1,0.5,1.5,0.8c0.2,0.1,0.5,0.3,0.7,0.5
			c0.2,0.1-0.2-0.2-0.1-0.1c0.1,0.1,0.1,0.1,0.2,0.2c0.1,0.1,0.2,0.2,0.3,0.3c0.4,0.4,0.8,0.8,1.2,1.2c0.1,0.1,0.2,0.2,0.2,0.3
			c0-0.1-0.2-0.2-0.1-0.1c0,0.1,0.1,0.1,0.1,0.2c0.2,0.2,0.3,0.5,0.5,0.8c0.1,0.2,0.3,0.5,0.4,0.7c0.1,0.1,0.1,0.2,0.2,0.4
			c0,0.1,0.1,0.1,0.1,0.2c0,0,0,0.1,0.1,0.1c0,0.1,0,0.1-0.1-0.1c0.1,0,0.1,0.3,0.1,0.4c0,0.1,0.1,0.2,0.1,0.4
			c0.1,0.3,0.2,0.6,0.2,0.9c0.1,0.3,0.1,0.6,0.2,0.8c0,0.1,0,0.1,0,0.2c0,0.2,0.1,0.1,0,0c0.1,0.1,0,0.4,0,0.5
			c0.1,0.7,0.1,1.5,0,2.2c0,0.1,0,0.2,0,0.2c0.1-0.4,0,0,0,0.1c0,0.2-0.1,0.4-0.1,0.6c-0.1,0.4-0.2,0.7-0.3,1.1
			c-0.1,0.2-0.1,0.4-0.2,0.6c0,0.1-0.1,0.1-0.1,0.2c-0.1,0.2,0.1-0.2,0,0c-0.2,0.4-0.3,0.7-0.5,1c-0.2,0.3-0.4,0.7-0.6,1
			c0,0.1-0.1,0.1-0.1,0.2c0.1-0.2,0.1-0.1,0,0c-0.1,0.2-0.3,0.3-0.4,0.5c-0.5,0.6-0.6,1.5,0,2.1c0.6,0.5,1.5,0.6,2.1,0
			c2.2-2.4,3.4-5.6,3.4-8.9c0-2.7-0.9-5.4-2.5-7.6c-1.6-2.2-3.8-3.9-6.4-4.8c-2.8-1-6.1-1-8.9,0.1c-1.7,0.7-3.3,1.7-4.6,3
			c-0.7,0.6-1.2,1.4-1.7,2.1c-0.2,0.3-0.4,0.7-0.6,1.1c-0.2,0.5-0.6,1.1-0.6,1.6c0,0.8,0.7,1.5,1.5,1.5C80.9,35.6,81.5,35,81.5,34.1
			L81.5,34.1z"/>
	</g>
	<line class="st5" x1="80.1" y1="34.1" x2="80.1" y2="34.1"/>
	<g>
		<g>
			<path class="st0" d="M47.9,78.3c0.4,0.1,0.8,0.3,1.3,0.4c0.3,0.1-0.2-0.1,0,0c0.1,0,0.2,0.1,0.3,0.1c0.2,0.1,0.4,0.2,0.6,0.3
				c0.4,0.2,0.8,0.4,1.1,0.7c0.1,0.1,0.2,0.1,0.2,0.2c0,0-0.2-0.2-0.1-0.1c0,0,0.1,0.1,0.1,0.1c0.2,0.1,0.4,0.3,0.5,0.5
				c0.3,0.3,0.6,0.6,0.9,0.9c0.1,0.1,0.2,0.3,0.4,0.5c0,0-0.2-0.2-0.1-0.1c0,0,0.1,0.1,0.1,0.1c0.1,0.1,0.2,0.2,0.2,0.3
				c0.2,0.4,0.5,0.7,0.7,1.1c0.1,0.2,0.2,0.4,0.3,0.5c0,0.1,0.1,0.2,0.1,0.3c0,0-0.1-0.3,0-0.1c0,0.1,0.1,0.1,0.1,0.2
				c0.2,0.4,0.3,0.8,0.4,1.3c0.1,0.2,0.1,0.4,0.1,0.6c0,0.1,0,0.2,0.1,0.3c0,0.1,0,0.1,0,0.2c0,0.1,0,0.3,0,0c0,0.5,0.1,0.9,0.1,1.4
				c0,0.4,0,0.9-0.1,1.3c0,0.4,0-0.2,0,0.1c0,0.1,0,0.2-0.1,0.3c0,0.2-0.1,0.4-0.1,0.7c-0.1,0.4-0.2,0.8-0.4,1.3
				c0,0.1-0.1,0.2-0.1,0.3c-0.1,0.3,0.1-0.2,0,0c-0.1,0.2-0.2,0.4-0.3,0.6c-0.2,0.4-0.4,0.8-0.7,1.1c-0.1,0.2-0.2,0.4-0.4,0.5
				c0,0-0.1,0.1-0.1,0.1c-0.1,0.1,0.1-0.1,0.1-0.1c-0.1,0.1-0.1,0.2-0.2,0.3c-0.3,0.3-0.6,0.6-0.9,0.9c-0.2,0.1-0.3,0.3-0.5,0.4
				c-0.1,0.1-0.2,0.1-0.2,0.2c0,0-0.1,0.1-0.1,0.1c-0.2,0.1,0.2-0.2,0.1,0c-0.4,0.3-0.7,0.5-1.1,0.7c-0.4,0.2-0.8,0.4-1.2,0.6
				c0,0-0.1,0-0.1,0.1c0,0,0.3-0.1,0.1-0.1c-0.1,0-0.2,0.1-0.3,0.1c-0.2,0.1-0.4,0.2-0.7,0.2c-0.4,0.1-0.9,0.2-1.3,0.3
				c-0.1,0-0.2,0-0.3,0.1c0,0-0.1,0-0.2,0c0,0,0.3,0,0.1,0c-0.2,0-0.5,0.1-0.7,0.1c-0.5,0-0.9,0-1.4,0c-0.2,0-0.4,0-0.6,0
				c-0.1,0-0.4-0.1-0.1,0c-0.1,0-0.2,0-0.3-0.1c-0.4-0.1-0.8-0.2-1.3-0.3c-0.2-0.1-0.4-0.1-0.6-0.2c-0.1,0-0.2-0.1-0.3-0.1
				c-0.1,0-0.1,0-0.2-0.1c-0.1,0-0.2-0.1,0,0c0.2,0.1-0.1,0-0.1-0.1c-0.1,0-0.2-0.1-0.3-0.1c-0.2-0.1-0.4-0.2-0.6-0.3
				c-0.4-0.2-0.7-0.4-1.1-0.7c-0.1-0.1-0.2-0.1-0.2-0.2c-0.1-0.1,0.1,0.1,0.1,0.1c0,0-0.1-0.1-0.1-0.1c-0.2-0.1-0.3-0.3-0.5-0.4
				c-0.3-0.3-0.6-0.6-0.8-0.9c-0.1-0.2-0.3-0.3-0.4-0.5c0,0-0.1-0.1-0.1-0.1c0,0,0.2,0.2,0.1,0.1C37.1,94.2,37,94.1,37,94
				c-0.2-0.3-0.5-0.7-0.7-1.1c-0.1-0.2-0.2-0.4-0.3-0.6c0-0.1-0.1-0.2-0.1-0.3c0,0,0-0.1-0.1-0.1c-0.1-0.2,0,0.1,0,0.1
				c-0.1,0-0.2-0.5-0.2-0.6c-0.1-0.2-0.1-0.4-0.2-0.6c-0.1-0.4-0.2-0.8-0.3-1.3c0-0.1,0-0.2,0-0.3c0.1,0.4,0,0,0-0.1
				c0-0.2,0-0.4,0-0.7c0-0.5,0-1.1,0-1.6c0-0.1,0-0.3,0-0.4c0,0.3,0-0.1,0-0.2c0.1-0.3,0.1-0.6,0.2-0.8c0.1-0.5,0.3-1.1,0.5-1.6
				c0.3-0.7-0.3-1.7-1-1.8c-0.9-0.2-1.5,0.3-1.8,1c-1.7,4-1.1,8.9,1.4,12.4c2.4,3.3,6.1,5.4,10.1,5.6c4,0.2,8.1-1.6,10.7-4.7
				c2.7-3.3,3.8-7.6,2.7-11.8c-1-4-4-7.3-7.9-8.9c-0.4-0.2-0.9-0.3-1.4-0.5c-0.7-0.2-1.6,0.3-1.8,1C46.7,77.2,47.1,78.1,47.9,78.3
				L47.9,78.3z"/>
		</g>
		<g>
			<path class="st0" d="M32.7,53.8c0,0.4,0,0.9,0,1.4c0,0.2,0,0.4,0,0.6c0,0.1,0,0.2,0,0.2c0,0.2,0,0.2,0,0c0,0.1,0,0.2,0,0.2
				c-0.1,0.8-0.3,1.6-0.6,2.3c0,0.1-0.1,0.1-0.1,0.2c0.2-0.3,0,0,0,0.1c-0.1,0.2-0.2,0.4-0.3,0.5c-0.2,0.3-0.4,0.7-0.6,1
				c-0.1,0.2-0.2,0.3-0.3,0.5c-0.2,0.3,0.2-0.2,0,0.1c0,0.1-0.1,0.1-0.1,0.2c-0.3,0.3-0.5,0.6-0.8,0.9c-0.2,0.2-0.5,0.5-0.8,0.7
				c-0.1,0.1-0.3,0.3-0.1,0c0,0-0.1,0.1-0.2,0.1c-0.2,0.1-0.4,0.3-0.6,0.4c-0.3,0.2-0.6,0.4-1,0.6c-0.2,0.1-0.3,0.2-0.5,0.2
				c-0.1,0-0.3,0.2,0,0c-0.1,0-0.2,0.1-0.3,0.1c-0.7,0.3-1.5,0.5-2.3,0.6c-0.1,0-0.4,0.1,0,0c-0.1,0-0.2,0-0.3,0c-0.2,0-0.4,0-0.5,0
				c-0.5,0-1,0-1.5,0c-0.1,0-0.2,0-0.3,0c0,0-0.5-0.1-0.2,0c-0.2,0-0.5-0.1-0.7-0.1c-0.4-0.1-0.8-0.2-1.1-0.3
				c-0.3-0.1-0.7-0.2-1-0.4c0.4,0.2-0.1-0.1-0.2-0.1c-0.2-0.1-0.3-0.2-0.5-0.3c-0.3-0.2-0.6-0.3-0.8-0.5c-0.1-0.1-0.3-0.2-0.4-0.3
				c-0.1-0.1-0.2-0.1-0.2-0.2c0,0,0.1,0.1,0.1,0.1c-0.1,0-0.1-0.1-0.2-0.1c-0.5-0.4-1-0.9-1.4-1.4c-0.1-0.1-0.2-0.3-0.3-0.4
				c-0.2-0.3,0.1,0.2,0,0c0-0.1-0.1-0.1-0.1-0.2c-0.2-0.3-0.4-0.6-0.6-0.9c-0.2-0.3-0.3-0.6-0.5-0.9c-0.1-0.2-0.1-0.3-0.2-0.5
				c0.2,0.3,0.1,0.1,0,0c0-0.1-0.1-0.2-0.1-0.3c-0.2-0.7-0.4-1.3-0.5-2c0,0-0.1-0.4,0-0.1c0,0.3,0-0.1,0-0.1c0-0.2,0-0.4,0-0.5
				c0-0.4,0-0.8,0-1.2c0-0.2,0-0.4,0-0.6c0-0.1,0-0.2,0-0.3c0-0.4,0,0.2,0-0.1c0.1-0.4,0.2-0.8,0.3-1.2c0.1-0.4,0.3-0.9,0.4-1.3
				c0-0.1,0.1-0.3,0,0c0-0.1,0.1-0.2,0.1-0.3c0.1-0.2,0.2-0.4,0.3-0.6c0.2-0.4,0.4-0.7,0.6-1c0.1-0.1,0.1-0.2,0.2-0.3
				c0,0,0.3-0.4,0,0c0.1-0.2,0.3-0.3,0.4-0.5c0.3-0.3,0.5-0.6,0.8-0.9c0.2-0.1,0.3-0.3,0.5-0.4c0.1,0,0.1-0.1,0.2-0.1
				c0.1-0.1,0.1-0.1,0,0c0.1,0,0.1-0.1,0.2-0.1c0.6-0.5,1-1.3,0.5-2c-0.4-0.6-1.4-1-2-0.5c-2.9,2.1-4.9,5.2-5.4,8.7
				c-0.5,3.3,0.2,6.8,2.2,9.6c1.9,2.7,4.8,4.7,8.1,5.3c3.9,0.8,7.8-0.2,10.9-2.7c3.3-2.6,5.1-6.9,4.8-11c-0.1-0.8-0.6-1.5-1.5-1.5
				C33.4,52.3,32.6,52.9,32.7,53.8L32.7,53.8z"/>
		</g>
		<g>
			<path class="st0" d="M31.1,45.8c-0.2-0.2-0.3-0.5-0.4-0.7c-0.1-0.1-0.1-0.2-0.2-0.4c-0.1-0.3,0.1,0.3,0,0.1
				c0-0.1-0.1-0.2-0.1-0.3c-0.1-0.2-0.2-0.5-0.2-0.8c0-0.1,0-0.3-0.1-0.4c0-0.2,0,0.4,0,0.1c0-0.1,0-0.2,0-0.2c0-0.3,0-0.5,0-0.8
				c0-0.1,0-0.3,0-0.4c0,0.5,0,0,0-0.2c0.1-0.2,0.1-0.5,0.2-0.7c0-0.1,0.2-0.3,0,0.1c0,0,0-0.1,0.1-0.1c0.1-0.1,0.1-0.3,0.2-0.4
				c0.1-0.1,0.1-0.2,0.2-0.3c0.1-0.2-0.1,0.1-0.1,0.1c0.1-0.1,0.1-0.1,0.1-0.2c0.1-0.1,0.2-0.2,0.3-0.3c0,0,0.1-0.1,0.1-0.1
				c0.3-0.2-0.1,0.1,0,0c0.2-0.1,0.4-0.3,0.7-0.4c0.1-0.1,0.3-0.1,0,0c0.1,0,0.1,0,0.2-0.1c0.2-0.1,0.3-0.1,0.5-0.2
				c0.2,0,0.3-0.1,0.5-0.1c0.3-0.1-0.1,0-0.1,0c0,0,0.8-0.1,0.6-0.1c0.3,0,0.6-0.1,0.9-0.3c0.8-0.3,1.5-0.8,2-1.4
				c1.2-1.4,1.6-3.5,0.6-5.1c0.1,0.2,0.1,0.5,0.2,0.7c0-0.6-0.4-1.1-0.8-1.6c-0.3-0.4-0.7-0.9-1.1-1.3c-0.6-0.7-1.4-1.3-2.1-1.8
				c-1.4-1-3.1-1.7-4.8-2c-3.2-0.6-6.6,0-9.4,1.7c-2.6,1.6-4.6,4.1-5.6,6.9c-1.2,3.3-0.9,7.1,0.7,10.3c1.7,3.4,5,5.9,8.7,6.8
				c0.8,0.2,1.6-0.2,1.8-1c0.2-0.8-0.2-1.6-1-1.8c-0.4-0.1-0.7-0.2-1.1-0.3c-0.1,0-0.3-0.1-0.4-0.1c-0.1,0-0.2-0.1-0.3-0.1
				c0.2,0.1,0.1,0-0.1,0c-0.6-0.3-1.2-0.6-1.8-1c-0.1-0.1-0.2-0.1-0.3-0.2c-0.1,0-0.2-0.2,0,0c-0.1-0.1-0.3-0.2-0.4-0.3
				c-0.3-0.2-0.5-0.5-0.8-0.8c-0.2-0.2-0.4-0.5-0.7-0.7c-0.2-0.3,0.2,0.3,0,0c0-0.1-0.1-0.1-0.1-0.2c-0.1-0.2-0.2-0.3-0.3-0.5
				c-0.2-0.3-0.4-0.6-0.5-0.9c-0.1-0.2-0.2-0.3-0.2-0.5c0-0.1-0.1-0.2-0.1-0.3c0.1,0.3,0-0.1,0-0.1c-0.3-0.8-0.5-1.6-0.6-2.4
				c0-0.2,0,0.4,0-0.1c0-0.1,0-0.2,0-0.3c0-0.2,0-0.4,0-0.7c0-0.4,0-0.7,0-1.1c0-0.2,0-0.3,0-0.5c0-0.1,0-0.1,0-0.2c0,0.4,0,0.2,0,0
				c0.1-0.3,0.1-0.7,0.2-1c0.1-0.3,0.2-0.6,0.2-0.9c0.1-0.2,0.1-0.3,0.2-0.5c0-0.1,0-0.1,0.1-0.2c0.1-0.3-0.1,0.3,0,0
				c0.3-0.6,0.6-1.2,0.9-1.7c0.1-0.1,0.2-0.2,0.2-0.4c0-0.1,0.1-0.1,0.1-0.2c0.1-0.1,0-0.1-0.1,0.1c0-0.1,0.2-0.3,0.3-0.4
				c0.1-0.1,0.2-0.2,0.3-0.4c0.2-0.2,0.4-0.5,0.7-0.7c0.1-0.1,0.2-0.2,0.3-0.3c0.1-0.1,0.1-0.1,0.2-0.2c0,0,0.1,0,0.1-0.1
				c0.1-0.1,0.1-0.1-0.1,0.1c0-0.1,0.3-0.2,0.4-0.3c0.1-0.1,0.2-0.2,0.4-0.2c0.3-0.2,0.6-0.3,0.8-0.5c0.1-0.1,0.3-0.2,0.4-0.2
				c0.1-0.1,0.3-0.2,0.4-0.2c0,0-0.3,0.1-0.1,0c0.1,0,0.2-0.1,0.2-0.1c0.2-0.1,0.3-0.1,0.5-0.2c0.6-0.2,1.3-0.3,1.9-0.4
				c0.2,0-0.4,0,0,0c0.1,0,0.1,0,0.2,0c0.2,0,0.3,0,0.5,0c0.4,0,0.8,0,1.1,0c0.2,0,0.5,0,0.7,0c0.1,0,0.2,0,0.3,0c-0.3,0,0,0,0.1,0
				c0.4,0.1,0.9,0.2,1.3,0.3c0.2,0.1,0.4,0.1,0.6,0.2c0.1,0,0.2,0.1,0.3,0.1c0.1,0,0.4,0.2,0.1,0c0.4,0.2,0.8,0.4,1.2,0.6
				c0.4,0.2,0.7,0.4,1.1,0.7c0.1,0,0.1,0.1,0.2,0.1c-0.3-0.2,0,0,0.1,0.1c0.2,0.1,0.3,0.3,0.5,0.4c0.3,0.3,0.7,0.6,0.9,1
				c0.1,0.1,0.1,0.2,0.2,0.2c0.3,0.3-0.2-0.2,0.1,0.1c0.2,0.2,0.3,0.4,0.4,0.6c-0.1-0.2-0.1-0.5-0.2-0.7c0,0.3,0.1,0.6,0.3,0.9
				c0,0,0,0.1,0,0.1c0.1,0.1,0.1,0.1,0-0.1c0,0,0,0.1,0.1,0.2c0,0.1,0,0.2,0.1,0.2c0.1,0.2,0-0.1,0-0.1c0,0.1,0,0.4,0,0.5
				c0-0.3,0.1-0.3,0-0.1c0,0.1,0,0.1-0.1,0.2c0,0.1-0.1,0.1-0.1,0.2c0,0.2,0.2-0.3,0-0.1c-0.1,0.1-0.1,0.3-0.2,0.4
				c0,0.1-0.2,0.2,0,0.1c0.2-0.2-0.1,0.1-0.1,0.1c-0.1,0.1-0.2,0.2-0.3,0.3c-0.2,0.1,0-0.1,0.1-0.1c0,0-0.2,0.1-0.2,0.2
				c-0.1,0-0.1,0.1-0.2,0.1c0,0-0.1,0-0.1,0c-0.1,0.1-0.1,0.1,0.1,0c-0.1,0-0.4,0.1-0.5,0.2c0,0-0.2,0-0.2,0c0-0.1,0.3,0,0.1,0
				c-0.3,0-0.5,0.1-0.8,0.1c-0.3,0.1-0.6,0.1-0.9,0.3c-1.3,0.5-2.5,1.4-3.2,2.7c-0.6,1.1-0.9,2.4-0.9,3.7c0.1,1.5,0.5,3,1.4,4.2
				c0.4,0.6,1.3,1,2,0.5C31.2,47.5,31.5,46.5,31.1,45.8L31.1,45.8z"/>
		</g>
		<g>
			<path class="st0" d="M58.1,44.4c0-4,0-8,0-12c0-2,0-4.1,0-6.1c0-0.6,0-1.3,0-1.9c0-0.1,0-0.3-0.1-0.4c-0.3-1.1-1.7-1.4-2.5-0.7
				c-0.3,0.3-0.4,0.7-0.4,1.1c0,0.1,0,0.3,0,0.4c0,0.4,0,0.9,0,1.3c0,0,0,0.1,0,0.1c0.1-0.2,0.1-0.5,0.2-0.7c0,0,0,0,0,0
				c0.9,0.1,1.8,0.2,2.7,0.4c0,0,0,0.6,0,0.3c0-0.1,0-0.1,0-0.2c0-0.2,0-0.4,0-0.6c0-0.6-0.1-1.2-0.1-1.8c0-0.6-0.1-1.2-0.1-1.7
				c0-0.5-0.1-0.9-0.2-1.4c-1.4-3.8-4.8-6.5-8.5-8c-1.8-0.7-3.7-1.2-5.6-1.2c-2-0.1-3.9,0.4-5.8,1.1c-3.4,1.5-6.1,4.5-7.2,8.1
				c-0.6,2-0.7,4.2-0.4,6.3c0.2,1.2,0.6,2.3,1.1,3.4c0.1,0.2,0.2,0.4,0.3,0.7c0.1,0.1,0.1,0.2,0.2,0.4c0,0.1,0.1,0.1,0.1,0.2
				c0,0.1,0.1,0.1,0.1,0.2c0.1,0.2,0.2,0.2,0,0.1c-0.2-0.1-0.1-0.1,0,0c0,0.1,0.1,0.1,0.1,0.2c0.1,0.1,0.2,0.2,0.3,0.4
				c0.2,0.3,0.5,0.6,0.7,0.9c0.4,0.4,0.8,0.8,1.2,1.2c-0.1-0.3-0.3-0.7-0.4-1c0,0,0,0,0,0c0,0.8,0.7,1.5,1.5,1.5
				c0.8,0,1.5-0.7,1.5-1.5c0-0.8-0.7-1.3-1.2-1.8c-0.2-0.2-0.4-0.4-0.5-0.6c-0.1-0.1-0.3-0.4-0.1-0.2c-0.1-0.1-0.2-0.2-0.3-0.4
				c-0.1-0.1-0.1-0.2-0.2-0.3c-0.1-0.1-0.2-0.2-0.3-0.4c0,0,0.2,0.3,0.1,0.1c-0.1-0.2-0.3-0.5-0.4-0.7c-0.1-0.2-0.2-0.4-0.3-0.7
				c-0.1-0.3,0.1,0.2,0-0.1c-0.1-0.1-0.1-0.3-0.2-0.4c-0.2-0.5-0.3-1-0.4-1.6c0-0.1,0-0.2-0.1-0.4c0-0.1-0.1-0.4,0-0.2
				c0,0.2,0-0.2,0-0.2c0-0.2,0-0.3,0-0.5c0-0.5,0-1,0-1.4c0-0.2,0-0.4,0.1-0.6c0-0.2,0,0.1,0,0.1c0,0,0-0.1,0-0.2
				c0-0.1,0-0.3,0.1-0.4c0.1-0.4,0.2-0.8,0.3-1.2c0.1-0.2,0.1-0.4,0.2-0.6c0-0.1,0.1-0.2,0.1-0.3c0,0,0-0.1,0.1-0.1
				c0.1-0.2-0.1,0.3,0,0.1c0.4-0.8,0.7-1.5,1.2-2.2c0,0,0.1-0.2,0.2-0.2c0,0-0.2,0.2-0.1,0.1C35,18,35,18,35,18
				c0.1-0.2,0.3-0.3,0.4-0.5c0.3-0.3,0.6-0.6,0.9-0.9c0.2-0.1,0.3-0.3,0.5-0.4c0,0,0.1-0.1,0.1-0.1c0,0-0.2,0.2-0.1,0.1
				c0.1-0.1,0.2-0.1,0.3-0.2c0.3-0.2,0.7-0.5,1-0.6c0.2-0.1,0.3-0.2,0.5-0.3c0.1-0.1,0.4-0.3,0.6-0.3c0,0-0.3,0.1-0.1,0.1
				c0,0,0.1,0,0.1-0.1c0.1,0,0.2-0.1,0.3-0.1c0.2-0.1,0.4-0.1,0.6-0.2c0.4-0.1,0.8-0.2,1.2-0.3c0.1,0,0.2,0,0.3-0.1c0,0,0.1,0,0.2,0
				c0,0-0.3,0-0.1,0c0.2,0,0.4,0,0.7-0.1c0.4,0,0.9,0,1.3,0c0.2,0,0.4,0,0.6,0c0.1,0,0.2,0,0.3,0c0.3,0-0.3,0,0.1,0
				c0.9,0.1,1.7,0.3,2.6,0.6c0.2,0.1,0.4,0.1,0.6,0.2c0.1,0,0.2,0.1,0.3,0.1c0,0,0.1,0,0.1,0.1c0.2,0.1-0.2-0.1-0.1,0
				c0.4,0.2,0.8,0.4,1.2,0.6c0.4,0.2,0.8,0.5,1.2,0.7c0.2,0.1,0.4,0.2,0.5,0.4c0.1,0.1,0.2,0.1,0.3,0.2c0,0,0.1,0.1,0.1,0.1
				c0.2,0.1-0.2-0.2-0.1,0c0.7,0.6,1.3,1.1,1.9,1.8c0.1,0.1,0.1,0.2,0.2,0.2c0.2,0.2-0.2-0.2,0,0c0.1,0.2,0.3,0.3,0.4,0.5
				c0.2,0.3,0.4,0.7,0.6,1.1c0,0.1,0.1,0.2,0.1,0.3c0.1,0.2-0.1-0.3,0,0c0,0.1,0.1,0.5,0.2,0.5c0,0-0.1-0.5,0-0.3c0,0.1,0,0.1,0,0.2
				c0,0.5,0.1,1,0.1,1.4C54.9,23.9,55,25,55,26c0,0.2,0,0.4,0.1,0.6c0.1,0.6,0.7,1,1.2,1.1c0.6,0.1,1.1-0.2,1.5-0.7
				c0.3-0.4,0.2-1.1,0.2-1.6c0-0.3,0-0.5,0-0.8c0,0,0-0.1,0-0.1c0,0,0,0,0,0c0,0.3-0.2,0.8-0.4,1c-0.3,0.1-0.7,0.3-1,0.4
				c0,0,0,0,0,0c-0.2-0.1-0.5-0.1-0.7-0.2c0,0,0,0,0,0c-0.2-0.2-0.4-0.4-0.5-0.5c-0.1-0.2-0.2-0.6-0.2-0.7c0,0,0,0.1,0,0.1
				c0,0.1,0,0.3,0,0.4c0,0.6,0,1.2,0,1.8c0,2.9,0,5.8,0,8.7c0,3,0,6,0,9c0,0.8,0.7,1.5,1.5,1.5C57.5,45.8,58.1,45.2,58.1,44.4
				L58.1,44.4z"/>
		</g>
		<g>
			<path class="st0" d="M37.5,78.2C37.5,78.2,37.5,78.2,37.5,78.2c0.1-0.2,0.1-0.5,0.2-0.7c-0.3,0.6-0.6,1.2-1,1.8
				c-0.1,0.1-0.2,0.3-0.3,0.4c-0.1,0.1-0.3,0.4-0.1,0.2c-0.2,0.3-0.4,0.5-0.7,0.8c-0.2,0.2-0.4,0.4-0.7,0.7
				c-0.1,0.1-0.3,0.2-0.4,0.3c0,0-0.2,0.2-0.1,0.1c0.2-0.1-0.1,0.1-0.2,0.1c-0.6,0.4-1.2,0.8-1.8,1.1c-0.1,0-0.5,0.2-0.2,0.1
				c-0.2,0.1-0.3,0.1-0.5,0.2c-0.4,0.1-0.7,0.2-1.1,0.3c-0.3,0.1-0.7,0.2-1.1,0.2c0,0-0.3,0-0.1,0c0.2,0-0.2,0-0.2,0
				c-0.2,0-0.4,0-0.6,0c-0.6,0-1.3,0-1.9-0.1c-0.3,0,0.1,0,0.1,0c-0.1,0-0.1,0-0.2,0c-0.1,0-0.3,0-0.4-0.1c-0.3-0.1-0.6-0.1-0.9-0.2
				c-0.3-0.1-0.5-0.2-0.8-0.3c-0.1,0-0.2-0.1-0.4-0.1c-0.2-0.1-0.1,0,0.1,0c-0.1,0-0.2-0.1-0.3-0.1c-0.5-0.2-1-0.5-1.5-0.8
				c-0.2-0.1-0.5-0.3-0.7-0.5c-0.2-0.1,0.2,0.2,0.1,0.1c-0.1-0.1-0.1-0.1-0.2-0.2c-0.1-0.1-0.2-0.2-0.3-0.3
				c-0.4-0.4-0.8-0.8-1.2-1.2c-0.1-0.1-0.2-0.2-0.2-0.3c0,0.1,0.2,0.2,0.1,0.1c0-0.1-0.1-0.1-0.1-0.2c-0.2-0.2-0.3-0.5-0.5-0.8
				c-0.1-0.2-0.3-0.5-0.4-0.7C19.1,78.1,19,78,19,77.9c0-0.1-0.1-0.1-0.1-0.2c0,0,0-0.1-0.1-0.1c0-0.1,0-0.1,0.1,0.1
				c-0.1,0-0.1-0.3-0.1-0.4c0-0.1-0.1-0.2-0.1-0.4c-0.1-0.3-0.2-0.6-0.2-0.9c-0.1-0.3-0.1-0.6-0.2-0.8c0-0.1,0-0.1,0-0.2
				c0-0.2-0.1-0.1,0,0c-0.1-0.1,0-0.4,0-0.5c-0.1-0.7-0.1-1.5,0-2.2c0-0.1,0-0.2,0-0.2c-0.1,0.4,0,0,0-0.1c0-0.2,0.1-0.4,0.1-0.6
				c0.1-0.4,0.2-0.7,0.3-1.1c0.1-0.2,0.1-0.4,0.2-0.6c0-0.1,0.1-0.1,0.1-0.2c0.1-0.2-0.1,0.2,0,0c0.2-0.4,0.3-0.7,0.5-1
				c0.2-0.3,0.4-0.7,0.6-1c0-0.1,0.1-0.1,0.1-0.2c-0.1,0.2-0.1,0.1,0,0c0.1-0.2,0.3-0.3,0.4-0.5c0.5-0.6,0.6-1.5,0-2.1
				c-0.6-0.5-1.5-0.6-2.1,0c-2.2,2.4-3.4,5.6-3.4,8.9c0,2.7,0.9,5.4,2.5,7.6c1.6,2.2,3.8,3.9,6.4,4.8c2.8,1,6.1,1,8.9-0.1
				c1.7-0.7,3.3-1.7,4.6-3c0.7-0.6,1.2-1.4,1.7-2.1c0.2-0.3,0.4-0.7,0.6-1.1c0.2-0.5,0.6-1.1,0.6-1.6c0-0.8-0.7-1.5-1.5-1.5
				C38.2,76.8,37.5,77.4,37.5,78.2L37.5,78.2z"/>
		</g>
		<line class="st5" x1="39" y1="78.2" x2="39" y2="78.2"/>
	</g>
</g>
</svg>
