<svg id="Layer_1" data-name="Layer 1" xmlns="http://www.w3.org/2000/svg" viewBox="0 0 273.57 171.11"><text transform="translate(0 146.25)" font-size="32.63" fill="#fff" font-family="Michroma">NEURABITS</text><text transform="translate(2.63 166.19)" font-size="15.15" fill="#fff" font-family="ArialMT, Arial">Investigación y desarrollo de tecnología.</text><path d="M167,135.87l-.5-19.61,16.32-.05a7.19,7.19,0,0,1,4.79,1.34,5,5,0,0,1,1.56,4,4.46,4.46,0,0,1-1.79,3.93,4.23,4.23,0,0,1,1.76,1.72,5.85,5.85,0,0,1,.57,2.75,5.36,5.36,0,0,1-1.56,4.17,6.91,6.91,0,0,1-4.79,1.42Zm15.31-16.19H170.87V124h11.47c1.64,0,2.46-.74,2.46-2.23S184,119.68,182.34,119.68Zm.54,7.81h-12v4.61h12c1.64,0,2.47-.78,2.47-2.33S184.52,127.49,182.88,127.49Z" transform="translate(-28.22 -79.44)" fill="#fff" stroke="#fff" stroke-miterlimit="10" stroke-width="0.43"/><path d="M141.41,135.68V116.29h4.39l13.72,13.94.84-15.13,2.62,0,.88,20.62h-4.39l-13.73-14v14Z" transform="translate(-28.22 -79.44)" fill="#fff" stroke="#fff" stroke-miterlimit="10" stroke-width="0.43"/><path d="M178.3,106a12.15,12.15,0,1,1,14.4-6.85c-.64,1.59,1.94,2.28,2.56.71a14.81,14.81,0,1,0-17.67,8.7,1.33,1.33,0,0,0,.71-2.56Z" transform="translate(-28.22 -79.44)" fill="#fff"/><path d="M195.69,133.94a12.16,12.16,0,1,1,19.36,8.77c-1.36,1,0,3.32,1.34,2.3A14.81,14.81,0,1,0,193,133.94c.1,1.7,2.76,1.71,2.66,0Z" transform="translate(-28.22 -79.44)" fill="#fff"/><path d="M198.26,142.9a6.07,6.07,0,0,1,.81,5.73,3.94,3.94,0,0,1-1.74,1.93c-1.09.58-2.36.46-3.48,1A5.13,5.13,0,0,0,191,157.3a3,3,0,0,0,.22.59l.12.26c-.05-.53-.05-.55,0-.06a18.1,18.1,0,0,0,1.38,2,14.74,14.74,0,0,0,3.2,2.8A14.81,14.81,0,1,0,207.33,136c-1.66-.41-2.37,2.16-.7,2.56a12.17,12.17,0,1,1-11.47,20.24,10,10,0,0,1-.74-.85l-.17-.2c-.2-.47-.3-.48-.31,0a2.76,2.76,0,0,1-.2-2.57c1-1.89,3.55-1.45,5.17-2.46,3.8-2.35,4-7.71,1.64-11.15-1-1.41-3.26-.08-2.29,1.34Z" transform="translate(-28.22 -79.44)" fill="#fff"/><path d="M167,118.48c0,15.77,0,31.54.14,47.32a27.71,27.71,0,0,0,.14,5.31c.89,4.26,4.5,7.63,8.23,9.55a17.3,17.3,0,0,0,13.09,1.5,14.8,14.8,0,0,0,5.21-25.27l.39.94h0a1.33,1.33,0,0,0-2.66,0c0,1,1.32,1.78,1.92,2.49a11.74,11.74,0,0,1,1.85,3.08,12.08,12.08,0,0,1,.7,7,12.3,12.3,0,0,1-7.34,8.9,14.37,14.37,0,0,1-12-1c-2.9-1.52-6.45-4.48-6.87-7.85a43.21,43.21,0,0,1,0-4.83q0-7.46-.07-14.93-.06-16.09-.07-32.19a1.33,1.33,0,0,0-2.66,0Z" transform="translate(-28.22 -79.44)" fill="#fff"/><path d="M190.05,105.67c-.07.43,0,.41.15,0,.11-.24.24-.47.37-.7a10.84,10.84,0,0,1,.74-1.16,12,12,0,0,1,2-2.18A12.15,12.15,0,0,1,210.24,119c-1.12,1.29.75,3.18,1.88,1.89a14.81,14.81,0,0,0-21.79-20.06,15.65,15.65,0,0,0-1.76,2.29,6.2,6.2,0,0,0-1.18,2.6,1.33,1.33,0,0,0,2.66,0Z" transform="translate(-28.22 -79.44)" fill="#fff"/><line x1="160.5" y1="26.23" x2="160.5" y2="26.23" fill="none" stroke="#fff" stroke-miterlimit="10" stroke-width="0.53"/><path d="M151.7,156.34a12.15,12.15,0,1,1-14.4,6.85c.64-1.59-1.94-2.28-2.56-.71a14.94,14.94,0,0,0,13,20.36c9.81.54,17.46-9,15.1-18.43a15,15,0,0,0-10.4-10.63,1.33,1.33,0,0,0-.71,2.56Z" transform="translate(-28.22 -79.44)" fill="#fff"/><path d="M134.31,128.37A12.15,12.15,0,1,1,115,119.59c1.36-1,0-3.32-1.34-2.29A14.81,14.81,0,1,0,137,128.37c-.1-1.7-2.76-1.71-2.66,0Z" transform="translate(-28.22 -79.44)" fill="#fff"/><path d="M131.74,119.41a6.07,6.07,0,0,1-.81-5.73,3.9,3.9,0,0,1,1.74-1.93c1.09-.59,2.36-.47,3.48-1A5.14,5.14,0,0,0,139,105a3.14,3.14,0,0,0-.22-.58l-.12-.26c.05.52.05.54,0,0a19,19,0,0,0-1.38-2,14.78,14.78,0,0,0-3.2-2.81,14.81,14.81,0,1,0-11.43,26.85c1.66.41,2.37-2.16.7-2.56a12.16,12.16,0,1,1,10.22-21.39,13.52,13.52,0,0,1,1.25,1.14c.26.28.51.56.74.86l.17.2c.2.46.3.48.31,0a2.76,2.76,0,0,1,.2,2.57c-1,1.88-3.55,1.45-5.17,2.45-3.8,2.36-4,7.72-1.64,11.16,1,1.4,3.26.08,2.29-1.34Z" transform="translate(-28.22 -79.44)" fill="#fff"/><path d="M163,117.54c0-6.28,0-12.57,0-18.85,0-1.16,0-2.31,0-3.46a3.35,3.35,0,0,0-.2-1.54,1.35,1.35,0,0,0-1.5-.61c-1,.31-1,1.16-1,2,0,.25,0,.49,0,.74,0,.57-.25,1,.17.06l2.48.67c-.2-2.3.18-5-.73-7.14-1.74-4.18-5.66-7.09-9.78-8.69a16.17,16.17,0,0,0-12.8.19,14.79,14.79,0,0,0-3.36,24.53l-.39-.94h0a1.33,1.33,0,0,0,2.66,0c0-.93-1.07-1.53-1.63-2.15A12.14,12.14,0,0,1,139.46,84c6.5-4.06,16.52-.91,20,5.87a5.77,5.77,0,0,1,.27.56c0,.08.3.89.2.47s0,.18,0,.29c0,.66.07,1.31.11,2,.06,1.14.08,2.29.18,3.42s1.87,2,2.48.68a5.09,5.09,0,0,0,.2-1.95c0-.2,0-.4,0-.59s.11-.31,0,0l-.93.93h0l-1.5-.61c-.16-.31-.15-.92-.17-.38,0,.27,0,.53,0,.8,0,1.2,0,2.4,0,3.6,0,6.16,0,12.33,0,18.49a1.33,1.33,0,0,0,2.66,0Z" transform="translate(-28.22 -79.44)" fill="#fff"/><path d="M140,156.64c.07-.43,0-.41-.15.05-.11.24-.24.47-.37.7a10.84,10.84,0,0,1-.74,1.16,12,12,0,0,1-2,2.18,12.15,12.15,0,0,1-16.9-17.38c1.12-1.28-.75-3.17-1.88-1.88a14.81,14.81,0,0,0,21.79,20.06,16.2,16.2,0,0,0,1.76-2.29,6.2,6.2,0,0,0,1.18-2.6,1.33,1.33,0,0,0-2.66,0Z" transform="translate(-28.22 -79.44)" fill="#fff"/><line x1="113.06" y1="77.19" x2="113.06" y2="77.19" fill="none" stroke="#fff" stroke-miterlimit="10" stroke-width="0.53"/></svg>