<?xml version="1.0" encoding="utf-8"?>
<!-- Generator: Adobe Illustrator 26.1.0, SVG Export Plug-In . SVG Version: 6.00 Build 0)  -->
<svg version="1.1" id="Layer_1" xmlns="http://www.w3.org/2000/svg" xmlns:xlink="http://www.w3.org/1999/xlink" x="0px" y="0px"
	 viewBox="0 0 273.6 171.1" style="enable-background:new 0 0 273.6 171.1;" xml:space="preserve">
<style type="text/css">
	.st0{enable-background:new    ;}
	.st1{fill:#FFFFFF;}
	.st2{fill:#FFFFFF;stroke:#FFFFFF;stroke-width:0.43;stroke-miterlimit:10;}
	.st3{fill:none;stroke:#FFFFFF;stroke-width:0.53;stroke-miterlimit:10;}
</style>
<g>
	<g class="st0">
		<path class="st1" d="M6.1,146.2H3.1v-24.5h5.4l22.4,21.4v-21.4h3.1v24.5h-4.1L6.1,124.3V146.2z"/>
		<path class="st1" d="M40,146.2v-24.5h24.5v2.5H43.1v8.2h20.4v2.5H43.1v8.7h21.4v2.5H40z"/>
		<path class="st1" d="M97.2,121.8V134c0,1.4,0,2.8-0.1,4s-0.2,2.3-0.4,3.2s-0.5,1.8-1,2.5s-1.1,1.3-1.9,1.7c-0.8,0.5-1.9,0.8-3.2,1
			c-1.3,0.2-2.9,0.3-4.7,0.3h-7.2c-1.9,0-3.4-0.1-4.7-0.3c-1.3-0.2-2.3-0.6-3.2-1c-0.8-0.5-1.5-1-1.9-1.7c-0.5-0.7-0.8-1.5-1-2.5
			c-0.2-0.9-0.3-2-0.4-3.2s0-2.5,0-4v-12.2h3.1V134c0,1.5,0,2.8,0,3.9c0,1.1,0.1,2,0.3,2.8s0.4,1.4,0.7,1.8s0.8,0.8,1.4,1.1
			s1.4,0.4,2.3,0.5c0.9,0.1,2.1,0.1,3.4,0.1H86c1.3,0,2.5,0,3.4-0.1c0.9-0.1,1.7-0.2,2.3-0.5s1.1-0.6,1.4-1.1s0.6-1.1,0.7-1.8
			c0.2-0.8,0.2-1.7,0.3-2.8s0-2.4,0-3.9l0-12.2H97.2z"/>
		<path class="st1" d="M130.3,146.2h-3.1v-4.6c0-0.7,0-1.4,0-1.9c0-0.5-0.1-1-0.3-1.4c-0.2-0.4-0.4-0.7-0.7-0.9
			c-0.3-0.2-0.8-0.4-1.4-0.5c-0.6-0.1-1.4-0.2-2.3-0.3c-0.9,0-2.1-0.1-3.4-0.1h-13.8v9.7h-3.1v-24.5h17.3c1.9,0,3.4,0.1,4.7,0.2
			c1.3,0.1,2.3,0.3,3.2,0.6c0.8,0.3,1.5,0.6,1.9,1c0.5,0.4,0.8,0.9,1,1.4s0.3,1.1,0.4,1.8c0,0.7,0.1,1.4,0.1,2.2
			c0,1-0.1,1.9-0.2,2.7c-0.1,0.8-0.4,1.4-0.7,2c-0.3,0.5-0.8,1-1.4,1.3s-1.3,0.5-2.1,0.7c0.9,0.1,1.5,0.4,2,0.7
			c0.5,0.3,0.9,0.7,1.2,1.2c0.3,0.5,0.5,1.1,0.5,1.8s0.1,1.5,0.1,2.4V146.2z M105.3,134h14.3c1.4,0,2.5,0,3.4-0.1
			c0.9,0,1.7-0.1,2.3-0.3c0.6-0.1,1.1-0.3,1.4-0.5c0.3-0.2,0.6-0.5,0.7-0.9c0.2-0.4,0.2-0.8,0.3-1.4c0-0.5,0-1.2,0-1.9
			c0-0.7,0-1.3,0-1.8s-0.1-0.9-0.3-1.3c-0.2-0.3-0.4-0.6-0.7-0.8c-0.3-0.2-0.8-0.4-1.4-0.5s-1.4-0.2-2.3-0.2c-0.9,0-2.1,0-3.4,0
			h-14.3V134z"/>
		<path class="st1" d="M159.7,140.6h-19.1l-3.2,5.6h-3.5l14-24.5h4.4l13.9,24.5h-3.2L159.7,140.6z M158.3,138.1l-8.1-14.3l-8.1,14.3
			H158.3z"/>
		<path class="st1" d="M170.6,146.2v-24.5H191c1.5,0,2.8,0.1,3.7,0.4c0.9,0.2,1.7,0.6,2.2,1.1c0.5,0.5,0.8,1.1,1,1.8
			c0.2,0.7,0.3,1.6,0.3,2.5c0,0.7-0.1,1.3-0.2,1.8c-0.1,0.5-0.3,1-0.5,1.4c-0.2,0.4-0.4,0.7-0.7,1c-0.2,0.3-0.5,0.5-0.8,0.6
			c-0.6,0.4-1.3,0.6-2,0.7c1,0.1,1.8,0.3,2.5,0.7c0.3,0.2,0.6,0.4,0.9,0.7c0.3,0.3,0.6,0.6,0.8,1s0.4,0.9,0.6,1.4s0.2,1.2,0.2,1.9
			c0,0.9,0,1.6-0.1,2.3c-0.1,0.7-0.2,1.3-0.5,1.9c-0.2,0.6-0.6,1.1-1.1,1.5s-1.1,0.8-1.8,1.1c-0.8,0.3-1.7,0.5-2.8,0.6
			s-2.4,0.2-3.9,0.2H170.6z M187.9,132c1,0,1.9,0,2.7-0.1c0.8,0,1.4-0.1,1.9-0.2s1-0.3,1.3-0.5c0.3-0.2,0.6-0.5,0.8-0.8
			c0.2-0.3,0.3-0.7,0.4-1.2c0.1-0.5,0.1-1,0.1-1.6c0-0.7-0.1-1.2-0.2-1.7c-0.1-0.4-0.4-0.8-0.8-1s-0.9-0.4-1.6-0.5
			c-0.7-0.1-1.5-0.1-2.5-0.1h-16.3v7.6H187.9z M187.9,143.7c1.2,0,2.2,0,3.1-0.1c0.9,0,1.6-0.1,2.2-0.2s1.1-0.3,1.5-0.5
			c0.4-0.2,0.7-0.5,0.9-0.9c0.2-0.4,0.3-0.8,0.4-1.4s0.1-1.2,0.1-2c0-0.6,0-1.1-0.1-1.6s-0.2-0.8-0.4-1.1s-0.5-0.5-0.9-0.7
			c-0.4-0.2-0.9-0.3-1.5-0.4c-0.6-0.1-1.3-0.2-2.2-0.2c-0.9,0-1.9-0.1-3.1-0.1h-14.3v9.2H187.9z"/>
		<path class="st1" d="M204.2,121.8h3.1v24.5h-3.1V121.8z"/>
		<path class="st1" d="M239.9,121.8v2.5h-12.2v21.9h-3.1v-21.9h-12.2v-2.5H239.9z"/>
		<path class="st1" d="M260.4,132.5c1.7,0,3.1,0.1,4.3,0.2s2.2,0.3,3,0.6s1.5,0.6,2,1c0.5,0.4,0.9,0.9,1.1,1.4s0.4,1.1,0.5,1.7
			c0.1,0.6,0.1,1.3,0.1,2.1c0,0.7-0.1,1.4-0.2,2.1c-0.1,0.7-0.4,1.2-0.7,1.8c-0.3,0.5-0.8,1-1.4,1.4c-0.6,0.4-1.3,0.8-2.2,1.1
			c-0.9,0.3-2,0.5-3.3,0.7s-2.8,0.2-4.5,0.2h-4.1c-1.5,0-2.9-0.1-4-0.2c-1.1-0.1-2.1-0.3-3-0.5c-0.8-0.2-1.5-0.5-2.1-0.9
			c-0.5-0.4-1-0.8-1.3-1.3c-0.3-0.5-0.6-1.1-0.7-1.7c-0.1-0.6-0.2-1.3-0.2-2.1h3.1c0,1,0.1,1.7,0.4,2.3c0.3,0.6,0.7,1,1.4,1.2
			s1.5,0.4,2.5,0.5c1,0.1,2.3,0.1,3.8,0.1h4.1c1.8,0,3.3-0.1,4.4-0.3c1.2-0.2,2.1-0.4,2.8-0.8c0.7-0.4,1.2-0.9,1.5-1.5
			c0.3-0.6,0.4-1.3,0.4-2.2s-0.1-1.6-0.3-2.2c-0.2-0.6-0.6-1-1.2-1.4c-0.6-0.3-1.4-0.6-2.4-0.7c-1.1-0.1-2.4-0.2-4.1-0.2h-4.2
			c-1.9,0-3.5-0.1-4.8-0.2c-1.3-0.1-2.5-0.3-3.4-0.6c-0.9-0.3-1.6-0.6-2.2-1c-0.5-0.4-1-0.8-1.2-1.3c-0.3-0.5-0.5-1.1-0.5-1.7
			c-0.1-0.6-0.1-1.3-0.1-2c0-0.7,0.1-1.4,0.2-2.1c0.1-0.6,0.4-1.2,0.7-1.7c0.4-0.5,0.9-1,1.5-1.4c0.6-0.4,1.4-0.7,2.4-1
			c1-0.3,2.2-0.5,3.5-0.6c1.4-0.1,3-0.2,4.9-0.2h3.1c1.5,0,2.9,0.1,4,0.2c1.1,0.1,2.1,0.3,3,0.5s1.5,0.5,2.1,0.9
			c0.5,0.4,1,0.8,1.3,1.3c0.3,0.5,0.5,1.1,0.7,1.7c0.1,0.6,0.2,1.3,0.2,2.1h-3.1c0-1-0.1-1.7-0.4-2.2c-0.3-0.5-0.7-0.9-1.4-1.2
			c-0.6-0.3-1.5-0.4-2.5-0.5c-1-0.1-2.3-0.1-3.9-0.1h-3.1c-2,0-3.7,0.1-5,0.2c-1.3,0.1-2.4,0.4-3.1,0.7c-0.8,0.3-1.3,0.8-1.6,1.4
			s-0.4,1.3-0.4,2.2c0,0.5,0,1,0.1,1.4s0.2,0.8,0.5,1.1c0.2,0.3,0.5,0.6,1,0.8s1,0.4,1.6,0.5c0.7,0.1,1.5,0.2,2.5,0.3
			s2.2,0.1,3.5,0.1H260.4z"/>
	</g>
	<g class="st0">
		<path class="st1" d="M4,166.2v-10.8h1.4v10.8H4z"/>
		<path class="st1" d="M7.8,166.2v-7.9H9v1.1c0.6-0.9,1.4-1.3,2.5-1.3c0.5,0,0.9,0.1,1.3,0.3s0.7,0.4,0.9,0.7c0.2,0.3,0.3,0.6,0.4,1
			c0,0.2,0.1,0.7,0.1,1.3v4.8h-1.3v-4.8c0-0.5-0.1-0.9-0.2-1.2c-0.1-0.3-0.3-0.5-0.6-0.6c-0.3-0.2-0.6-0.2-0.9-0.2
			c-0.6,0-1.1,0.2-1.5,0.5c-0.4,0.4-0.6,1-0.6,2v4.3H7.8z"/>
		<path class="st1" d="M18.4,166.2l-3-7.9h1.4l1.7,4.7c0.2,0.5,0.4,1,0.5,1.6c0.1-0.4,0.3-0.9,0.5-1.5l1.7-4.8h1.4l-3,7.9H18.4z"/>
		<path class="st1" d="M29.2,163.7l1.4,0.2c-0.2,0.8-0.6,1.4-1.2,1.9c-0.6,0.4-1.3,0.7-2.2,0.7c-1.1,0-2.1-0.4-2.7-1.1
			c-0.7-0.7-1-1.7-1-3c0-1.3,0.3-2.3,1-3.1c0.7-0.7,1.6-1.1,2.6-1.1c1.1,0,1.9,0.4,2.6,1.1c0.7,0.7,1,1.7,1,3c0,0.1,0,0.2,0,0.4
			h-5.9c0,0.9,0.3,1.5,0.7,2c0.4,0.5,1,0.7,1.6,0.7c0.5,0,0.9-0.1,1.3-0.4C28.7,164.6,29,164.2,29.2,163.7z M24.8,161.5h4.4
			c-0.1-0.7-0.2-1.2-0.5-1.5c-0.4-0.5-1-0.8-1.6-0.8c-0.6,0-1.1,0.2-1.5,0.6C25.1,160.3,24.9,160.8,24.8,161.5z"/>
		<path class="st1" d="M31.7,163.8l1.3-0.2c0.1,0.5,0.3,0.9,0.6,1.2s0.8,0.4,1.4,0.4c0.6,0,1.1-0.1,1.4-0.4s0.4-0.5,0.4-0.9
			c0-0.3-0.1-0.5-0.4-0.7c-0.2-0.1-0.6-0.3-1.4-0.5c-1-0.2-1.7-0.5-2-0.6c-0.4-0.2-0.7-0.4-0.9-0.7s-0.3-0.7-0.3-1.1
			c0-0.4,0.1-0.7,0.2-1c0.2-0.3,0.4-0.5,0.7-0.7c0.2-0.2,0.5-0.3,0.8-0.4c0.4-0.1,0.7-0.2,1.2-0.2c0.6,0,1.2,0.1,1.6,0.3
			s0.8,0.4,1,0.7c0.2,0.3,0.4,0.7,0.5,1.2l-1.3,0.2c-0.1-0.4-0.2-0.7-0.5-0.9c-0.3-0.2-0.7-0.3-1.2-0.3c-0.6,0-1,0.1-1.3,0.3
			s-0.4,0.4-0.4,0.7c0,0.2,0.1,0.3,0.2,0.5c0.1,0.1,0.3,0.3,0.5,0.4c0.1,0,0.5,0.2,1.2,0.3c0.9,0.3,1.6,0.5,2,0.6
			c0.4,0.2,0.7,0.4,0.9,0.7s0.3,0.7,0.3,1.1c0,0.4-0.1,0.9-0.4,1.3c-0.3,0.4-0.6,0.7-1.1,0.9c-0.5,0.2-1,0.3-1.7,0.3
			c-1,0-1.8-0.2-2.3-0.6C32.2,165.3,31.9,164.7,31.7,163.8z"/>
		<path class="st1" d="M42.7,165l0.2,1.2c-0.4,0.1-0.7,0.1-1,0.1c-0.5,0-0.9-0.1-1.1-0.2c-0.3-0.2-0.5-0.4-0.6-0.6
			c-0.1-0.2-0.2-0.8-0.2-1.6v-4.5h-1v-1h1v-1.9l1.3-0.8v2.7h1.3v1h-1.3v4.6c0,0.4,0,0.6,0.1,0.7s0.1,0.2,0.2,0.3
			c0.1,0.1,0.3,0.1,0.5,0.1C42.3,165.1,42.5,165,42.7,165z"/>
		<path class="st1" d="M44.1,156.9v-1.5h1.3v1.5H44.1z M44.1,166.2v-7.9h1.3v7.9H44.1z"/>
		<path class="st1" d="M47.2,166.8l1.3,0.2c0.1,0.4,0.2,0.7,0.5,0.9c0.3,0.2,0.8,0.4,1.4,0.4c0.6,0,1.1-0.1,1.4-0.4
			c0.3-0.2,0.6-0.6,0.7-1c0.1-0.3,0.1-0.8,0.1-1.7c-0.6,0.7-1.3,1-2.2,1c-1.1,0-1.9-0.4-2.5-1.2s-0.9-1.7-0.9-2.8
			c0-0.7,0.1-1.4,0.4-2.1c0.3-0.6,0.7-1.1,1.2-1.5c0.5-0.3,1.1-0.5,1.8-0.5c0.9,0,1.7,0.4,2.3,1.1v-0.9h1.2v6.8
			c0,1.2-0.1,2.1-0.4,2.6c-0.2,0.5-0.6,0.9-1.2,1.2s-1.2,0.4-2,0.4c-0.9,0-1.7-0.2-2.3-0.6C47.4,168.3,47.2,167.7,47.2,166.8z
			 M48.3,162.1c0,1,0.2,1.8,0.6,2.3s0.9,0.7,1.5,0.7c0.6,0,1.1-0.2,1.5-0.7c0.4-0.5,0.6-1.2,0.6-2.2c0-1-0.2-1.7-0.6-2.2
			c-0.4-0.5-0.9-0.7-1.5-0.7c-0.6,0-1.1,0.2-1.5,0.7C48.5,160.5,48.3,161.2,48.3,162.1z"/>
		<path class="st1" d="M61,165.2c-0.5,0.4-1,0.7-1.4,0.9c-0.5,0.2-0.9,0.3-1.5,0.3c-0.9,0-1.5-0.2-2-0.6s-0.7-1-0.7-1.6
			c0-0.4,0.1-0.7,0.3-1.1c0.2-0.3,0.4-0.6,0.7-0.8c0.3-0.2,0.6-0.3,1-0.4c0.3-0.1,0.7-0.1,1.2-0.2c1.1-0.1,1.9-0.3,2.4-0.5
			c0-0.2,0-0.3,0-0.3c0-0.5-0.1-0.9-0.4-1.1c-0.3-0.3-0.8-0.5-1.5-0.5c-0.6,0-1.1,0.1-1.4,0.3c-0.3,0.2-0.5,0.6-0.7,1.2l-1.3-0.2
			c0.1-0.6,0.3-1,0.6-1.4c0.3-0.3,0.7-0.6,1.2-0.8c0.5-0.2,1.1-0.3,1.8-0.3c0.7,0,1.2,0.1,1.6,0.2c0.4,0.2,0.7,0.4,0.9,0.6
			c0.2,0.2,0.3,0.5,0.4,0.9c0,0.2,0.1,0.6,0.1,1.2v1.8c0,1.2,0,2,0.1,2.3s0.2,0.6,0.3,0.9h-1.4C61.1,165.9,61,165.6,61,165.2z
			 M60.9,162.2c-0.5,0.2-1.2,0.4-2.2,0.5c-0.5,0.1-0.9,0.2-1.2,0.3c-0.2,0.1-0.4,0.2-0.5,0.4c-0.1,0.2-0.2,0.4-0.2,0.6
			c0,0.4,0.1,0.7,0.4,0.9c0.3,0.2,0.7,0.4,1.2,0.4c0.5,0,1-0.1,1.4-0.3s0.7-0.5,0.9-0.9c0.1-0.3,0.2-0.7,0.2-1.3V162.2z"/>
		<path class="st1" d="M69.4,163.3l1.3,0.2c-0.1,0.9-0.5,1.6-1.1,2.1c-0.6,0.5-1.3,0.8-2.2,0.8c-1.1,0-1.9-0.4-2.6-1.1
			c-0.7-0.7-1-1.7-1-3c0-0.8,0.1-1.6,0.4-2.2c0.3-0.6,0.7-1.1,1.3-1.4s1.2-0.5,1.9-0.5c0.9,0,1.6,0.2,2.1,0.6c0.5,0.4,0.9,1,1,1.8
			l-1.3,0.2c-0.1-0.5-0.3-0.9-0.7-1.2c-0.3-0.3-0.7-0.4-1.1-0.4c-0.7,0-1.2,0.2-1.6,0.7c-0.4,0.5-0.6,1.2-0.6,2.3
			c0,1.1,0.2,1.8,0.6,2.3s0.9,0.7,1.6,0.7c0.5,0,1-0.2,1.3-0.5C69.1,164.5,69.3,164,69.4,163.3z"/>
		<path class="st1" d="M71.8,156.9v-1.5h1.3v1.5H71.8z M71.8,166.2v-7.9h1.3v7.9H71.8z"/>
		<path class="st1" d="M74.7,162.3c0-1.5,0.4-2.5,1.2-3.2c0.7-0.6,1.5-0.9,2.5-0.9c1.1,0,2,0.4,2.6,1.1c0.7,0.7,1,1.7,1,2.9
			c0,1-0.2,1.8-0.5,2.4s-0.7,1-1.3,1.3c-0.6,0.3-1.2,0.5-1.9,0.5c-1.1,0-2-0.4-2.7-1.1C75,164.6,74.7,163.6,74.7,162.3z M76.1,162.3
			c0,1,0.2,1.8,0.7,2.3c0.4,0.5,1,0.8,1.7,0.8c0.7,0,1.2-0.3,1.6-0.8s0.7-1.3,0.7-2.3c0-1-0.2-1.7-0.7-2.2c-0.4-0.5-1-0.8-1.6-0.8
			c-0.7,0-1.2,0.2-1.7,0.7S76.1,161.3,76.1,162.3z M77.7,157.4l1-2.1h1.7l-1.6,2.1H77.7z"/>
		<path class="st1" d="M83.6,166.2v-7.9h1.2v1.1c0.6-0.9,1.4-1.3,2.5-1.3c0.5,0,0.9,0.1,1.3,0.3s0.7,0.4,0.9,0.7
			c0.2,0.3,0.3,0.6,0.4,1c0,0.2,0.1,0.7,0.1,1.3v4.8h-1.3v-4.8c0-0.5-0.1-0.9-0.2-1.2c-0.1-0.3-0.3-0.5-0.6-0.6
			c-0.3-0.2-0.6-0.2-0.9-0.2c-0.6,0-1.1,0.2-1.5,0.5c-0.4,0.4-0.6,1-0.6,2v4.3H83.6z"/>
		<path class="st1" d="M96.2,169.2l-0.1-1.2c0.3,0.1,0.5,0.1,0.8,0.1c0.3,0,0.5,0,0.7-0.1s0.3-0.2,0.4-0.4c0.1-0.1,0.2-0.5,0.4-1
			c0-0.1,0.1-0.2,0.1-0.3l-3-7.9h1.4l1.6,4.5c0.2,0.6,0.4,1.2,0.6,1.8c0.2-0.6,0.3-1.2,0.5-1.8l1.7-4.6h1.3l-3,8
			c-0.3,0.9-0.6,1.5-0.7,1.8c-0.2,0.4-0.5,0.8-0.8,1c-0.3,0.2-0.7,0.3-1.1,0.3C96.8,169.4,96.5,169.3,96.2,169.2z"/>
		<path class="st1" d="M113.1,166.2v-1c-0.5,0.8-1.2,1.2-2.2,1.2c-0.6,0-1.2-0.2-1.7-0.5c-0.5-0.3-0.9-0.8-1.2-1.4
			c-0.3-0.6-0.4-1.3-0.4-2.1c0-0.8,0.1-1.5,0.4-2.1c0.3-0.6,0.7-1.1,1.2-1.5c0.5-0.3,1.1-0.5,1.8-0.5c0.5,0,0.9,0.1,1.3,0.3
			c0.4,0.2,0.7,0.5,0.9,0.8v-3.9h1.3v10.8H113.1z M108.9,162.3c0,1,0.2,1.8,0.6,2.3s0.9,0.7,1.5,0.7c0.6,0,1.1-0.2,1.5-0.7
			c0.4-0.5,0.6-1.2,0.6-2.2c0-1.1-0.2-1.9-0.6-2.4c-0.4-0.5-0.9-0.8-1.5-0.8c-0.6,0-1.1,0.2-1.5,0.7S108.9,161.2,108.9,162.3z"/>
		<path class="st1" d="M121.9,163.7l1.4,0.2c-0.2,0.8-0.6,1.4-1.2,1.9c-0.6,0.4-1.3,0.7-2.2,0.7c-1.1,0-2.1-0.4-2.7-1.1
			c-0.7-0.7-1-1.7-1-3c0-1.3,0.3-2.3,1-3.1c0.7-0.7,1.6-1.1,2.6-1.1c1.1,0,1.9,0.4,2.6,1.1c0.7,0.7,1,1.7,1,3c0,0.1,0,0.2,0,0.4
			h-5.9c0,0.9,0.3,1.5,0.7,2c0.4,0.5,1,0.7,1.6,0.7c0.5,0,0.9-0.1,1.3-0.4C121.4,164.6,121.7,164.2,121.9,163.7z M117.5,161.5h4.4
			c-0.1-0.7-0.2-1.2-0.5-1.5c-0.4-0.5-1-0.8-1.6-0.8c-0.6,0-1.1,0.2-1.5,0.6C117.8,160.3,117.5,160.8,117.5,161.5z"/>
		<path class="st1" d="M124.4,163.8l1.3-0.2c0.1,0.5,0.3,0.9,0.6,1.2s0.8,0.4,1.4,0.4c0.6,0,1.1-0.1,1.4-0.4s0.4-0.5,0.4-0.9
			c0-0.3-0.1-0.5-0.4-0.7c-0.2-0.1-0.6-0.3-1.4-0.5c-1-0.2-1.7-0.5-2-0.6c-0.4-0.2-0.7-0.4-0.9-0.7s-0.3-0.7-0.3-1.1
			c0-0.4,0.1-0.7,0.2-1c0.2-0.3,0.4-0.5,0.7-0.7c0.2-0.2,0.5-0.3,0.8-0.4c0.4-0.1,0.7-0.2,1.2-0.2c0.6,0,1.2,0.1,1.6,0.3
			s0.8,0.4,1,0.7c0.2,0.3,0.4,0.7,0.5,1.2l-1.3,0.2c-0.1-0.4-0.2-0.7-0.5-0.9c-0.3-0.2-0.7-0.3-1.2-0.3c-0.6,0-1,0.1-1.3,0.3
			s-0.4,0.4-0.4,0.7c0,0.2,0.1,0.3,0.2,0.5c0.1,0.1,0.3,0.3,0.5,0.4c0.1,0,0.5,0.2,1.2,0.3c0.9,0.3,1.6,0.5,2,0.6
			c0.4,0.2,0.7,0.4,0.9,0.7s0.3,0.7,0.3,1.1c0,0.4-0.1,0.9-0.4,1.3c-0.3,0.4-0.6,0.7-1.1,0.9c-0.5,0.2-1,0.3-1.7,0.3
			c-1,0-1.8-0.2-2.3-0.6C124.9,165.3,124.5,164.7,124.4,163.8z"/>
		<path class="st1" d="M137.6,165.2c-0.5,0.4-1,0.7-1.4,0.9c-0.5,0.2-0.9,0.3-1.5,0.3c-0.9,0-1.5-0.2-2-0.6s-0.7-1-0.7-1.6
			c0-0.4,0.1-0.7,0.3-1.1c0.2-0.3,0.4-0.6,0.7-0.8c0.3-0.2,0.6-0.3,1-0.4c0.3-0.1,0.7-0.1,1.2-0.2c1.1-0.1,1.9-0.3,2.4-0.5
			c0-0.2,0-0.3,0-0.3c0-0.5-0.1-0.9-0.4-1.1c-0.3-0.3-0.8-0.5-1.5-0.5c-0.6,0-1.1,0.1-1.4,0.3c-0.3,0.2-0.5,0.6-0.7,1.2l-1.3-0.2
			c0.1-0.6,0.3-1,0.6-1.4c0.3-0.3,0.7-0.6,1.2-0.8c0.5-0.2,1.1-0.3,1.8-0.3c0.7,0,1.2,0.1,1.6,0.2c0.4,0.2,0.7,0.4,0.9,0.6
			c0.2,0.2,0.3,0.5,0.4,0.9c0,0.2,0.1,0.6,0.1,1.2v1.8c0,1.2,0,2,0.1,2.3s0.2,0.6,0.3,0.9h-1.4C137.7,165.9,137.6,165.6,137.6,165.2
			z M137.5,162.2c-0.5,0.2-1.2,0.4-2.2,0.5c-0.5,0.1-0.9,0.2-1.2,0.3c-0.2,0.1-0.4,0.2-0.5,0.4c-0.1,0.2-0.2,0.4-0.2,0.6
			c0,0.4,0.1,0.7,0.4,0.9c0.3,0.2,0.7,0.4,1.2,0.4c0.5,0,1-0.1,1.4-0.3s0.7-0.5,0.9-0.9c0.1-0.3,0.2-0.7,0.2-1.3V162.2z"/>
		<path class="st1" d="M140.9,166.2v-7.9h1.2v1.2c0.3-0.6,0.6-0.9,0.8-1.1s0.5-0.3,0.9-0.3c0.4,0,0.9,0.1,1.4,0.4l-0.5,1.2
			c-0.3-0.2-0.7-0.3-1-0.3c-0.3,0-0.6,0.1-0.8,0.3c-0.2,0.2-0.4,0.4-0.5,0.7c-0.1,0.5-0.2,1-0.2,1.6v4.1H140.9z"/>
		<path class="st1" d="M145.9,166.2v-7.9h1.2v1.2c0.3-0.6,0.6-0.9,0.8-1.1s0.5-0.3,0.9-0.3c0.4,0,0.9,0.1,1.4,0.4l-0.5,1.2
			c-0.3-0.2-0.7-0.3-1-0.3c-0.3,0-0.6,0.1-0.8,0.3c-0.2,0.2-0.4,0.4-0.5,0.7c-0.1,0.5-0.2,1-0.2,1.6v4.1H145.9z"/>
		<path class="st1" d="M150.5,162.3c0-1.5,0.4-2.5,1.2-3.2c0.7-0.6,1.5-0.9,2.5-0.9c1.1,0,2,0.4,2.6,1.1c0.7,0.7,1,1.7,1,2.9
			c0,1-0.2,1.8-0.5,2.4c-0.3,0.6-0.7,1-1.3,1.3c-0.6,0.3-1.2,0.5-1.9,0.5c-1.1,0-2-0.4-2.7-1.1C150.8,164.6,150.5,163.6,150.5,162.3
			z M151.9,162.3c0,1,0.2,1.8,0.7,2.3c0.4,0.5,1,0.8,1.7,0.8c0.7,0,1.2-0.3,1.6-0.8c0.4-0.5,0.7-1.3,0.7-2.3c0-1-0.2-1.7-0.7-2.2
			c-0.4-0.5-1-0.8-1.6-0.8c-0.7,0-1.2,0.2-1.7,0.7C152.1,160.5,151.9,161.3,151.9,162.3z"/>
		<path class="st1" d="M159.4,166.2v-10.8h1.3v10.8H159.4z"/>
		<path class="st1" d="M162.8,166.2v-10.8h1.3v10.8H162.8z"/>
		<path class="st1" d="M165.7,162.3c0-1.5,0.4-2.5,1.2-3.2c0.7-0.6,1.5-0.9,2.5-0.9c1.1,0,2,0.4,2.6,1.1c0.7,0.7,1,1.7,1,2.9
			c0,1-0.2,1.8-0.5,2.4c-0.3,0.6-0.7,1-1.3,1.3c-0.6,0.3-1.2,0.5-1.9,0.5c-1.1,0-2-0.4-2.7-1.1C166,164.6,165.7,163.6,165.7,162.3z
			 M167,162.3c0,1,0.2,1.8,0.7,2.3c0.4,0.5,1,0.8,1.7,0.8c0.7,0,1.2-0.3,1.6-0.8c0.4-0.5,0.7-1.3,0.7-2.3c0-1-0.2-1.7-0.7-2.2
			c-0.4-0.5-1-0.8-1.6-0.8c-0.7,0-1.2,0.2-1.7,0.7C167.2,160.5,167,161.3,167,162.3z"/>
		<path class="st1" d="M183.9,166.2v-1c-0.5,0.8-1.2,1.2-2.2,1.2c-0.6,0-1.2-0.2-1.7-0.5c-0.5-0.3-0.9-0.8-1.2-1.4
			c-0.3-0.6-0.4-1.3-0.4-2.1c0-0.8,0.1-1.5,0.4-2.1c0.3-0.6,0.7-1.1,1.2-1.5c0.5-0.3,1.1-0.5,1.8-0.5c0.5,0,0.9,0.1,1.3,0.3
			c0.4,0.2,0.7,0.5,0.9,0.8v-3.9h1.3v10.8H183.9z M179.7,162.3c0,1,0.2,1.8,0.6,2.3c0.4,0.5,0.9,0.7,1.5,0.7c0.6,0,1.1-0.2,1.5-0.7
			c0.4-0.5,0.6-1.2,0.6-2.2c0-1.1-0.2-1.9-0.6-2.4s-0.9-0.8-1.5-0.8c-0.6,0-1.1,0.2-1.5,0.7C179.9,160.5,179.7,161.2,179.7,162.3z"
			/>
		<path class="st1" d="M192.6,163.7l1.4,0.2c-0.2,0.8-0.6,1.4-1.2,1.9c-0.6,0.4-1.3,0.7-2.2,0.7c-1.1,0-2.1-0.4-2.7-1.1s-1-1.7-1-3
			c0-1.3,0.3-2.3,1-3.1c0.7-0.7,1.6-1.1,2.6-1.1c1.1,0,1.9,0.4,2.6,1.1s1,1.7,1,3c0,0.1,0,0.2,0,0.4h-5.9c0,0.9,0.3,1.5,0.7,2
			c0.4,0.5,1,0.7,1.6,0.7c0.5,0,0.9-0.1,1.3-0.4C192.1,164.6,192.4,164.2,192.6,163.7z M188.2,161.5h4.4c-0.1-0.7-0.2-1.2-0.5-1.5
			c-0.4-0.5-1-0.8-1.6-0.8c-0.6,0-1.1,0.2-1.5,0.6C188.5,160.3,188.3,160.8,188.2,161.5z"/>
		<path class="st1" d="M202.8,165l0.2,1.2c-0.4,0.1-0.7,0.1-1,0.1c-0.5,0-0.9-0.1-1.1-0.2c-0.3-0.2-0.5-0.4-0.6-0.6
			s-0.2-0.8-0.2-1.6v-4.5h-1v-1h1v-1.9l1.3-0.8v2.7h1.3v1h-1.3v4.6c0,0.4,0,0.6,0.1,0.7s0.1,0.2,0.2,0.3s0.3,0.1,0.5,0.1
			C202.3,165.1,202.5,165,202.8,165z"/>
		<path class="st1" d="M209.4,163.7l1.4,0.2c-0.2,0.8-0.6,1.4-1.2,1.9c-0.6,0.4-1.3,0.7-2.2,0.7c-1.1,0-2.1-0.4-2.7-1.1
			c-0.7-0.7-1-1.7-1-3c0-1.3,0.3-2.3,1-3.1c0.7-0.7,1.6-1.1,2.6-1.1c1,0,1.9,0.4,2.6,1.1c0.7,0.7,1,1.7,1,3c0,0.1,0,0.2,0,0.4H205
			c0,0.9,0.3,1.5,0.7,2c0.4,0.5,1,0.7,1.6,0.7c0.5,0,0.9-0.1,1.2-0.4C209,164.6,209.2,164.2,209.4,163.7z M205.1,161.5h4.4
			c-0.1-0.7-0.2-1.2-0.5-1.5c-0.4-0.5-1-0.8-1.6-0.8c-0.6,0-1.1,0.2-1.5,0.6C205.3,160.3,205.1,160.8,205.1,161.5z"/>
		<path class="st1" d="M217.6,163.3l1.3,0.2c-0.1,0.9-0.5,1.6-1.1,2.1c-0.6,0.5-1.3,0.8-2.2,0.8c-1.1,0-1.9-0.4-2.6-1.1
			c-0.7-0.7-1-1.7-1-3c0-0.8,0.1-1.6,0.4-2.2c0.3-0.6,0.7-1.1,1.3-1.4c0.6-0.3,1.2-0.5,1.9-0.5c0.9,0,1.6,0.2,2.1,0.6
			c0.5,0.4,0.9,1,1,1.8l-1.3,0.2c-0.1-0.5-0.3-0.9-0.7-1.2c-0.3-0.3-0.7-0.4-1.1-0.4c-0.7,0-1.2,0.2-1.6,0.7
			c-0.4,0.5-0.6,1.2-0.6,2.3c0,1.1,0.2,1.8,0.6,2.3s0.9,0.7,1.6,0.7c0.5,0,1-0.2,1.3-0.5C217.3,164.5,217.5,164,217.6,163.3z"/>
		<path class="st1" d="M220.1,166.2v-7.9h1.2v1.1c0.6-0.9,1.4-1.3,2.5-1.3c0.5,0,0.9,0.1,1.3,0.3c0.4,0.2,0.7,0.4,0.9,0.7
			c0.2,0.3,0.3,0.6,0.4,1c0,0.2,0.1,0.7,0.1,1.3v4.8h-1.3v-4.8c0-0.5-0.1-0.9-0.2-1.2c-0.1-0.3-0.3-0.5-0.6-0.6
			c-0.3-0.2-0.6-0.2-0.9-0.2c-0.6,0-1.1,0.2-1.5,0.5c-0.4,0.4-0.6,1-0.6,2v4.3H220.1z"/>
		<path class="st1" d="M228,162.3c0-1.5,0.4-2.5,1.2-3.2c0.7-0.6,1.5-0.9,2.5-0.9c1.1,0,2,0.4,2.6,1.1c0.7,0.7,1,1.7,1,2.9
			c0,1-0.2,1.8-0.5,2.4c-0.3,0.6-0.7,1-1.3,1.3c-0.6,0.3-1.2,0.5-1.9,0.5c-1.1,0-2-0.4-2.7-1.1C228.3,164.6,228,163.6,228,162.3z
			 M229.4,162.3c0,1,0.2,1.8,0.7,2.3c0.4,0.5,1,0.8,1.7,0.8c0.7,0,1.2-0.3,1.6-0.8c0.4-0.5,0.7-1.3,0.7-2.3c0-1-0.2-1.7-0.7-2.2
			c-0.4-0.5-1-0.8-1.6-0.8c-0.7,0-1.2,0.2-1.7,0.7C229.6,160.5,229.4,161.3,229.4,162.3z"/>
		<path class="st1" d="M236.9,166.2v-10.8h1.3v10.8H236.9z"/>
		<path class="st1" d="M239.8,162.3c0-1.5,0.4-2.5,1.2-3.2c0.7-0.6,1.5-0.9,2.5-0.9c1.1,0,2,0.4,2.6,1.1c0.7,0.7,1,1.7,1,2.9
			c0,1-0.2,1.8-0.5,2.4c-0.3,0.6-0.7,1-1.3,1.3c-0.6,0.3-1.2,0.5-1.9,0.5c-1.1,0-2-0.4-2.7-1.1C240.1,164.6,239.8,163.6,239.8,162.3
			z M241.1,162.3c0,1,0.2,1.8,0.7,2.3c0.4,0.5,1,0.8,1.7,0.8c0.7,0,1.2-0.3,1.6-0.8c0.4-0.5,0.7-1.3,0.7-2.3c0-1-0.2-1.7-0.7-2.2
			c-0.4-0.5-1-0.8-1.6-0.8c-0.7,0-1.2,0.2-1.7,0.7C241.4,160.5,241.1,161.3,241.1,162.3z"/>
		<path class="st1" d="M248.5,166.8l1.3,0.2c0.1,0.4,0.2,0.7,0.5,0.9c0.3,0.2,0.8,0.4,1.4,0.4c0.6,0,1.1-0.1,1.4-0.4
			c0.3-0.2,0.6-0.6,0.7-1c0.1-0.3,0.1-0.8,0.1-1.7c-0.6,0.7-1.3,1-2.2,1c-1.1,0-1.9-0.4-2.5-1.2s-0.9-1.7-0.9-2.8
			c0-0.7,0.1-1.4,0.4-2.1c0.3-0.6,0.7-1.1,1.2-1.5c0.5-0.3,1.1-0.5,1.8-0.5c0.9,0,1.7,0.4,2.3,1.1v-0.9h1.2v6.8
			c0,1.2-0.1,2.1-0.4,2.6c-0.2,0.5-0.6,0.9-1.2,1.2s-1.2,0.4-2,0.4c-0.9,0-1.7-0.2-2.3-0.6S248.4,167.7,248.5,166.8z M249.6,162.1
			c0,1,0.2,1.8,0.6,2.3s0.9,0.7,1.5,0.7c0.6,0,1.1-0.2,1.5-0.7c0.4-0.5,0.6-1.2,0.6-2.2c0-1-0.2-1.7-0.6-2.2
			c-0.4-0.5-0.9-0.7-1.5-0.7c-0.6,0-1.1,0.2-1.5,0.7C249.8,160.5,249.6,161.2,249.6,162.1z"/>
		<path class="st1" d="M257.5,157.4l1-2.1h1.7l-1.6,2.1H257.5z M257.6,166.2v-7.9h1.3v7.9H257.6z"/>
		<path class="st1" d="M266.5,165.2c-0.5,0.4-1,0.7-1.4,0.9c-0.5,0.2-0.9,0.3-1.5,0.3c-0.9,0-1.5-0.2-2-0.6c-0.5-0.4-0.7-1-0.7-1.6
			c0-0.4,0.1-0.7,0.3-1.1c0.2-0.3,0.4-0.6,0.7-0.8c0.3-0.2,0.6-0.3,1-0.4c0.3-0.1,0.7-0.1,1.2-0.2c1.1-0.1,1.9-0.3,2.4-0.5
			c0-0.2,0-0.3,0-0.3c0-0.5-0.1-0.9-0.4-1.1c-0.3-0.3-0.8-0.5-1.5-0.5c-0.6,0-1.1,0.1-1.4,0.3c-0.3,0.2-0.5,0.6-0.7,1.2l-1.3-0.2
			c0.1-0.6,0.3-1,0.6-1.4s0.7-0.6,1.2-0.8c0.5-0.2,1.1-0.3,1.8-0.3c0.7,0,1.2,0.1,1.6,0.2s0.7,0.4,0.9,0.6s0.3,0.5,0.4,0.9
			c0,0.2,0.1,0.6,0.1,1.2v1.8c0,1.2,0,2,0.1,2.3s0.2,0.6,0.3,0.9h-1.4C266.6,165.9,266.5,165.6,266.5,165.2z M266.3,162.2
			c-0.5,0.2-1.2,0.4-2.2,0.5c-0.5,0.1-0.9,0.2-1.2,0.3c-0.2,0.1-0.4,0.2-0.5,0.4c-0.1,0.2-0.2,0.4-0.2,0.6c0,0.4,0.1,0.7,0.4,0.9
			c0.3,0.2,0.7,0.4,1.2,0.4c0.5,0,1-0.1,1.4-0.3s0.7-0.5,0.9-0.9c0.1-0.3,0.2-0.7,0.2-1.3V162.2z"/>
		<path class="st1" d="M270.1,166.2v-1.5h1.5v1.5H270.1z"/>
	</g>
	<path class="st2" d="M138.8,56.4l-0.5-19.6l16.3-0.1c1.7-0.1,3.4,0.3,4.8,1.3c1.1,1,1.7,2.5,1.6,4c0.1,1.5-0.6,3-1.8,3.9
		c0.7,0.4,1.4,1,1.8,1.7c0.4,0.9,0.6,1.8,0.6,2.7c0.1,1.6-0.5,3.1-1.6,4.2c-1.4,1.1-3.1,1.6-4.8,1.4L138.8,56.4z M154.1,40.2h-11.4
		v4.3h11.5c1.6,0,2.5-0.7,2.5-2.2S155.8,40.2,154.1,40.2L154.1,40.2z M154.6,48h-12v4.6h12c1.6,0,2.5-0.8,2.5-2.3S156.3,48,154.6,48
		L154.6,48z"/>
	<path class="st2" d="M113.2,56.2V36.8h4.4l13.7,13.9l0.8-15.1h2.6l0.9,20.6h-4.4l-13.7-14v14L113.2,56.2z"/>
	<path class="st1" d="M150.1,26.6c-6.5-1.8-10.2-8.5-8.4-15c1.8-6.5,8.5-10.2,15-8.4s10.2,8.5,8.4,15c-0.2,0.5-0.3,1.1-0.6,1.6
		c-0.6,1.6,1.9,2.3,2.6,0.7c3.1-7.6-0.6-16.2-8.1-19.3s-16.2,0.6-19.3,8.1c-3.1,7.6,0.6,16.2,8.1,19.3c0.5,0.2,1.1,0.4,1.6,0.6
		c0.7,0.2,1.4-0.3,1.6-1C151.1,27.4,150.7,26.8,150.1,26.6z"/>
	<path class="st1" d="M167.5,54.5c-0.6-6.7,4.4-12.6,11.1-13.1c6.7-0.6,12.6,4.4,13.1,11.1c0.3,4.2-1.5,8.3-4.9,10.8
		c-1.4,1,0,3.3,1.3,2.3c6.7-4.8,8.2-14,3.4-20.7c-4.8-6.7-14-8.2-20.7-3.4c-4.2,3-6.5,7.9-6.2,13C164.9,56.2,167.5,56.2,167.5,54.5
		L167.5,54.5z"/>
	<path class="st1" d="M170,63.5c1.2,1.7,1.5,3.8,0.8,5.7c-0.3,0.8-1,1.5-1.7,1.9c-1.1,0.6-2.4,0.5-3.5,1c-2.2,1-3.4,3.4-2.8,5.7
		c0.1,0.2,0.1,0.4,0.2,0.6l0.1,0.3c-0.1-0.5-0.1-0.6,0-0.1c0.4,0.7,0.9,1.4,1.4,2c0.9,1.1,2,2,3.2,2.8c6.9,4.4,16.1,2.4,20.5-4.5
		c4.4-6.9,2.4-16.1-4.5-20.5c-1.4-0.9-2.9-1.5-4.5-1.9c-1.7-0.4-2.4,2.2-0.7,2.6c6.6,1.4,10.7,7.9,9.3,14.5
		c-1.4,6.6-7.9,10.7-14.5,9.3c-2.4-0.5-4.6-1.8-6.2-3.5c-0.3-0.3-0.5-0.6-0.7-0.9l-0.2-0.2c-0.2-0.5-0.3-0.5-0.3,0
		c-0.5-0.8-0.6-1.7-0.2-2.6c1-1.9,3.6-1.4,5.2-2.5c3.8-2.4,4-7.7,1.6-11.1C171.3,60.7,169.1,62,170,63.5L170,63.5z"/>
	<path class="st1" d="M138.8,39c0,15.8,0,31.5,0.1,47.3c-0.1,1.8-0.1,3.5,0.1,5.3c0.9,4.3,4.5,7.6,8.2,9.6c4,2.2,8.7,2.7,13.1,1.5
		c7.8-2.5,12.1-10.8,9.6-18.6c-0.8-2.6-2.3-4.9-4.4-6.7l0.4,0.9l0,0c0-0.7-0.6-1.3-1.3-1.3s-1.3,0.6-1.3,1.3c0,1,1.3,1.8,1.9,2.5
		c0.8,0.9,1.4,2,1.9,3.1c0.9,2.2,1.2,4.6,0.7,7c-0.8,4-3.6,7.3-7.3,8.9c-4,1.4-8.3,1.1-12-1c-2.9-1.5-6.4-4.5-6.9-7.9
		c-0.1-1.6-0.1-3.2,0-4.8c0-5,0-9.9-0.1-14.9c0-10.7-0.1-21.5-0.1-32.2c0-0.7-0.6-1.3-1.3-1.3S138.8,38.3,138.8,39L138.8,39z"/>
	<path class="st1" d="M161.8,26.2c-0.1,0.4,0,0.4,0.1,0c0.1-0.2,0.2-0.5,0.4-0.7c0.2-0.4,0.5-0.8,0.7-1.2c0.6-0.8,1.2-1.5,2-2.2
		c5.1-4.4,12.8-3.8,17.1,1.3c4,4.7,3.9,11.6-0.2,16.1c-1.1,1.3,0.8,3.2,1.9,1.9c5.5-6.1,5-15.4-1.1-20.9c-6-5.4-15.1-5-20.7,0.9
		c-0.7,0.7-1.2,1.5-1.8,2.3c-0.6,0.8-1,1.7-1.2,2.6c0,0.7,0.6,1.3,1.3,1.3S161.8,27,161.8,26.2L161.8,26.2z"/>
	<line class="st3" x1="160.5" y1="26.2" x2="160.5" y2="26.2"/>
	<path class="st1" d="M123.5,76.9c6.5,1.8,10.2,8.5,8.4,15c-1.8,6.5-8.5,10.2-15,8.4s-10.2-8.5-8.4-15c0.2-0.5,0.3-1.1,0.6-1.6
		c0.6-1.6-1.9-2.3-2.6-0.7c-3,7.7,0.8,16.4,8.5,19.4c1.5,0.6,3,0.9,4.5,1c9.8,0.5,17.5-9,15.1-18.4c-1.3-5.1-5.3-9.2-10.4-10.6
		c-0.7-0.2-1.4,0.3-1.6,1C122.5,76,122.9,76.7,123.5,76.9L123.5,76.9z"/>
	<path class="st1" d="M106.1,48.9c0.6,6.7-4.4,12.6-11.1,13.1c-6.7,0.6-12.6-4.4-13.1-11.1c-0.3-4.2,1.5-8.3,4.9-10.8
		c1.4-1,0-3.3-1.3-2.3c-6.7,4.7-8.2,14-3.5,20.6s14,8.2,20.6,3.5c4.2-3,6.6-7.9,6.2-13.1C108.7,47.2,106,47.2,106.1,48.9L106.1,48.9
		z"/>
	<path class="st1" d="M103.5,40c-1.2-1.7-1.5-3.8-0.8-5.7c0.3-0.8,1-1.5,1.7-1.9c1.1-0.6,2.4-0.5,3.5-1c2.2-1,3.4-3.4,2.8-5.8
		c-0.1-0.2-0.1-0.4-0.2-0.6l-0.1-0.3c0.1,0.5,0.1,0.5,0,0c-0.4-0.7-0.9-1.4-1.4-2c-0.9-1.1-2-2-3.2-2.8c-6.9-4.4-16-2.5-20.5,4.4
		c-4.4,6.9-2.5,16,4.4,20.5c1.4,0.9,3,1.6,4.7,2c1.7,0.4,2.4-2.2,0.7-2.6c-6.6-1.5-10.7-8-9.2-14.5s8-10.7,14.5-9.2
		c1.8,0.4,3.5,1.2,4.9,2.3c0.4,0.4,0.9,0.7,1.2,1.1c0.3,0.3,0.5,0.6,0.7,0.9l0.2,0.2c0.2,0.5,0.3,0.5,0.3,0c0.5,0.8,0.6,1.7,0.2,2.6
		c-1,1.9-3.6,1.4-5.2,2.4c-3.8,2.4-4,7.7-1.6,11.2c1,1.4,3.3,0.1,2.3-1.3L103.5,40z"/>
	<path class="st1" d="M134.8,38.1c0-6.3,0-12.6,0-18.8c0-1.2,0-2.3,0-3.5c0.1-0.5,0-1-0.2-1.5c-0.3-0.5-0.9-0.8-1.5-0.6
		c-1,0.3-1,1.2-1,2c0,0.2,0,0.5,0,0.7c0,0.6-0.2,1,0.2,0.1l2.5,0.7c-0.2-2.3,0.2-5-0.7-7.1c-1.7-4.2-5.7-7.1-9.8-8.7
		c-4.1-1.7-8.7-1.6-12.8,0.2c-7.4,3.5-10.5,12.3-7,19.7c0.9,1.8,2.1,3.5,3.7,4.8l-0.4-0.9l0,0c0,0.7,0.6,1.3,1.3,1.3
		s1.3-0.6,1.3-1.3c0-0.9-1.1-1.5-1.6-2.2c-4.5-5-4.1-12.7,0.9-17.1c0.5-0.4,1-0.8,1.6-1.2c6.5-4.1,16.5-0.9,20,5.9
		c0.1,0.2,0.2,0.4,0.3,0.6c0,0.1,0.3,0.9,0.2,0.5s0,0.2,0,0.3c0,0.7,0.1,1.3,0.1,2c0.1,1.1,0.1,2.3,0.2,3.4s1.9,2,2.5,0.7
		c0.2-0.6,0.3-1.3,0.2-1.9c0-0.2,0-0.4,0-0.6s0.1-0.3,0,0l-0.9,0.9l0,0l-1.5-0.6c-0.2-0.3-0.1-0.9-0.2-0.4c0,0.3,0,0.5,0,0.8
		c0,1.2,0,2.4,0,3.6c0,6.2,0,12.3,0,18.5c0,0.7,0.6,1.3,1.3,1.3S134.7,38.9,134.8,38.1L134.8,38.1z"/>
	<path class="st1" d="M111.8,77.2c0.1-0.4,0-0.4-0.1,0.1c-0.1,0.2-0.2,0.5-0.4,0.7c-0.2,0.4-0.5,0.8-0.7,1.2c-0.6,0.8-1.2,1.5-2,2.2
		c-5.1,4.3-12.8,3.7-17.1-1.4c-3.9-4.6-3.8-11.4,0.2-16c1.1-1.3-0.8-3.2-1.9-1.9c-5.5,6.1-5,15.4,1.1,20.9c6,5.4,15.1,5,20.7-0.9
		c0.7-0.7,1.2-1.5,1.8-2.3c0.6-0.8,1-1.7,1.2-2.6c0-0.7-0.6-1.3-1.3-1.3S111.8,76.5,111.8,77.2L111.8,77.2z"/>
	<line class="st3" x1="113.1" y1="77.2" x2="113.1" y2="77.2"/>
</g>
</svg>
